<svg width="215" height="40" viewBox="0 0 215 40" fill="none" xmlns="http://www.w3.org/2000/svg">
<rect width="214.694" height="40" rx="20" fill="white" fill-opacity="0.1"/>
<path d="M47.3985 10.8753H43.152C42.1805 10.8753 41.5422 11.1528 41.0426 11.819C40.6817 12.3186 40.5985 12.6516 40.5985 13.9561V26.3071C40.4875 28.5275 41.4589 29.499 43.6793 29.3879H48.7307C51.9503 29.3879 54.4205 27.001 54.4205 23.8924C54.4205 22.4492 53.9209 21.2557 52.9218 20.3675C52.2834 19.8124 51.756 19.5349 50.5903 19.2018C52.1724 18.2304 52.783 17.2035 52.783 15.5104C52.783 14.1226 52.2279 12.9014 51.2287 12.041C50.2573 11.2084 49.1748 10.8753 47.3985 10.8753ZM46.9544 17.9251H44.845V14.5667H46.7879C47.9258 14.5667 48.7585 15.2328 48.7585 16.1488C48.7585 17.2035 48.0091 17.9251 46.9544 17.9251ZM47.7871 25.6965H44.845V21.7275H47.676C49.2303 21.7275 50.0075 22.3937 50.0075 23.7537C50.0075 24.281 49.8409 24.7251 49.5356 25.0859C49.1471 25.5577 48.7307 25.6965 47.7871 25.6965Z" fill="white"/>
<path d="M60.0925 23.6982H67.6974C68.9464 23.6982 69.4738 23.2263 69.4738 22.0884C69.4738 18.1194 66.504 15.0386 62.7015 15.0386C58.677 15.0386 55.7072 18.2304 55.7072 22.5602C55.7072 26.7235 58.7603 29.6655 63.1178 29.6655C66.2542 29.6655 69.224 28.1112 69.224 26.4459C69.224 25.5855 68.4191 24.7806 67.5864 24.7806C67.2811 24.7806 66.9481 24.8639 66.6983 24.9749C64.5611 26.0296 64.3113 26.1128 63.3399 26.1128C61.7301 26.1128 60.7032 25.3357 60.0925 23.6982ZM65.4493 20.9226H59.9538C60.5366 19.1463 61.4248 18.3692 62.7848 18.3692C63.6174 18.3692 64.3946 18.7577 64.8664 19.4239C65.1162 19.8124 65.255 20.1455 65.4493 20.9226Z" fill="white"/>
<path d="M75.0608 23.6982H82.6657C83.9147 23.6982 84.442 23.2263 84.442 22.0884C84.442 18.1194 81.4722 15.0386 77.6698 15.0386C73.6453 15.0386 70.6755 18.2304 70.6755 22.5602C70.6755 26.7235 73.7285 29.6655 78.0861 29.6655C81.2224 29.6655 84.1922 28.1112 84.1922 26.4459C84.1922 25.5855 83.3873 24.7806 82.5547 24.7806C82.2494 24.7806 81.9163 24.8639 81.6665 24.9749C79.5294 26.0296 79.2796 26.1128 78.3081 26.1128C76.6983 26.1128 75.6714 25.3357 75.0608 23.6982ZM80.4175 20.9226H74.922C75.5049 19.1463 76.393 18.3692 77.753 18.3692C78.5857 18.3692 79.3628 18.7577 79.8347 19.4239C80.0845 19.8124 80.2232 20.1455 80.4175 20.9226Z" fill="white"/>
<path d="M91.4252 26.8622V19.0075H92.1746C93.0905 19.0075 93.2848 18.9798 93.7289 18.7577C94.2563 18.5079 94.6448 17.8418 94.6448 17.1757C94.6448 16.5096 94.2563 15.8435 93.7289 15.5659C93.3126 15.3439 93.0628 15.3161 92.1746 15.3161H91.4252V13.2067C91.4252 12.2075 91.3975 11.9855 91.1477 11.5137C90.8424 10.9308 90.1207 10.5145 89.3991 10.5145C88.6497 10.5145 87.9281 10.9308 87.6228 11.5414C87.373 11.9855 87.3452 12.2353 87.3452 13.2067V15.3161C86.6791 15.3161 86.6791 15.3161 86.4016 15.3716C85.4301 15.5104 84.8195 16.232 84.8195 17.1757C84.8195 17.6198 84.986 18.0361 85.2914 18.4247C85.6522 18.841 86.2628 19.0353 87.3452 19.0075V26.8622C87.3452 27.8614 87.373 28.0835 87.6228 28.5553C87.9281 29.1659 88.6497 29.5822 89.3991 29.5822C90.1207 29.5822 90.8424 29.1659 91.1477 28.5553C91.3975 28.0835 91.4252 27.8337 91.4252 26.8622Z" fill="white"/>
<path d="M100.182 26.8622V11.7357C100.182 10.7365 100.155 10.5145 99.9049 10.0426C99.5995 9.45978 98.8779 9.04346 98.1563 9.04346C97.4069 9.04346 96.6853 9.45978 96.38 10.0704C96.1302 10.5145 96.1024 10.7643 96.1024 11.7357V26.8622C96.1024 27.8614 96.1302 28.0835 96.38 28.5553C96.6853 29.1659 97.4069 29.5822 98.1563 29.5822C98.8779 29.5822 99.5995 29.1659 99.9049 28.5553C100.155 28.0835 100.182 27.8337 100.182 26.8622Z" fill="white"/>
<path d="M106.522 23.6982H114.127C115.375 23.6982 115.903 23.2263 115.903 22.0884C115.903 18.1194 112.933 15.0386 109.131 15.0386C105.106 15.0386 102.136 18.2304 102.136 22.5602C102.136 26.7235 105.189 29.6655 109.547 29.6655C112.683 29.6655 115.653 28.1112 115.653 26.4459C115.653 25.5855 114.848 24.7806 114.015 24.7806C113.71 24.7806 113.377 24.8639 113.127 24.9749C110.99 26.0296 110.74 26.1128 109.769 26.1128C108.159 26.1128 107.132 25.3357 106.522 23.6982ZM111.878 20.9226H106.383C106.966 19.1463 107.854 18.3692 109.214 18.3692C110.047 18.3692 110.824 18.7577 111.295 19.4239C111.545 19.8124 111.684 20.1455 111.878 20.9226Z" fill="white"/>
<path d="M132.065 10.8753H127.818C126.847 10.8753 126.208 11.1528 125.709 11.819C125.348 12.3186 125.265 12.6516 125.265 13.9561V26.3071C125.154 28.5275 126.125 29.499 128.345 29.3879H133.397C136.616 29.3879 139.087 27.001 139.087 23.8924C139.087 22.4492 138.587 21.2557 137.588 20.3675C136.949 19.8124 136.422 19.5349 135.256 19.2018C136.838 18.2304 137.449 17.2035 137.449 15.5104C137.449 14.1226 136.894 12.9014 135.895 12.041C134.923 11.2084 133.841 10.8753 132.065 10.8753ZM131.62 17.9251H129.511V14.5667H131.454C132.592 14.5667 133.425 15.2328 133.425 16.1488C133.425 17.2035 132.675 17.9251 131.62 17.9251ZM132.453 25.6965H129.511V21.7275H132.342C133.896 21.7275 134.674 22.3937 134.674 23.7537C134.674 24.281 134.507 24.7251 134.202 25.0859C133.813 25.5577 133.397 25.6965 132.453 25.6965Z" fill="white"/>
<path d="M144.759 23.6982H152.364C153.612 23.6982 154.14 23.2263 154.14 22.0884C154.14 18.1194 151.17 15.0386 147.368 15.0386C143.343 15.0386 140.373 18.2304 140.373 22.5602C140.373 26.7235 143.426 29.6655 147.784 29.6655C150.92 29.6655 153.89 28.1112 153.89 26.4459C153.89 25.5855 153.085 24.7806 152.252 24.7806C151.947 24.7806 151.614 24.8639 151.364 24.9749C149.227 26.0296 148.977 26.1128 148.006 26.1128C146.396 26.1128 145.369 25.3357 144.759 23.6982ZM150.115 20.9226H144.62C145.203 19.1463 146.091 18.3692 147.451 18.3692C148.284 18.3692 149.061 18.7577 149.532 19.4239C149.782 19.8124 149.921 20.1455 150.115 20.9226Z" fill="white"/>
<path d="M159.727 23.6982H167.332C168.581 23.6982 169.108 23.2263 169.108 22.0884C169.108 18.1194 166.138 15.0386 162.336 15.0386C158.311 15.0386 155.342 18.2304 155.342 22.5602C155.342 26.7235 158.395 29.6655 162.752 29.6655C165.888 29.6655 168.858 28.1112 168.858 26.4459C168.858 25.5855 168.053 24.7806 167.221 24.7806C166.915 24.7806 166.582 24.8639 166.333 24.9749C164.195 26.0296 163.946 26.1128 162.974 26.1128C161.364 26.1128 160.337 25.3357 159.727 23.6982ZM165.084 20.9226H159.588C160.171 19.1463 161.059 18.3692 162.419 18.3692C163.252 18.3692 164.029 18.7577 164.501 19.4239C164.751 19.8124 164.889 20.1455 165.084 20.9226Z" fill="white"/>
<path d="M176.091 26.8622V19.0075H176.841C177.757 19.0075 177.951 18.9798 178.395 18.7577C178.922 18.5079 179.311 17.8418 179.311 17.1757C179.311 16.5096 178.922 15.8435 178.395 15.5659C177.979 15.3439 177.729 15.3161 176.841 15.3161H176.091V13.2067C176.091 12.2075 176.064 11.9855 175.814 11.5137C175.508 10.9308 174.787 10.5145 174.065 10.5145C173.316 10.5145 172.594 10.9308 172.289 11.5414C172.039 11.9855 172.011 12.2353 172.011 13.2067V15.3161C171.345 15.3161 171.345 15.3161 171.068 15.3716C170.096 15.5104 169.486 16.232 169.486 17.1757C169.486 17.6198 169.652 18.0361 169.957 18.4247C170.318 18.841 170.929 19.0353 172.011 19.0075V26.8622C172.011 27.8614 172.039 28.0835 172.289 28.5553C172.594 29.1659 173.316 29.5822 174.065 29.5822C174.787 29.5822 175.508 29.1659 175.814 28.5553C176.064 28.0835 176.091 27.8337 176.091 26.8622Z" fill="white"/>
<path d="M184.848 26.8622V11.7357C184.848 10.7365 184.821 10.5145 184.571 10.0426C184.266 9.45978 183.544 9.04346 182.822 9.04346C182.073 9.04346 181.351 9.45978 181.046 10.0704C180.796 10.5145 180.768 10.7643 180.768 11.7357V26.8622C180.768 27.8614 180.796 28.0835 181.046 28.5553C181.351 29.1659 182.073 29.5822 182.822 29.5822C183.544 29.5822 184.266 29.1659 184.571 28.5553C184.821 28.0835 184.848 27.8337 184.848 26.8622Z" fill="white"/>
<path d="M191.188 23.6982H198.793C200.042 23.6982 200.569 23.2263 200.569 22.0884C200.569 18.1194 197.599 15.0386 193.797 15.0386C189.772 15.0386 186.802 18.2304 186.802 22.5602C186.802 26.7235 189.855 29.6655 194.213 29.6655C197.349 29.6655 200.319 28.1112 200.319 26.4459C200.319 25.5855 199.514 24.7806 198.682 24.7806C198.376 24.7806 198.043 24.8639 197.793 24.9749C195.656 26.0296 195.406 26.1128 194.435 26.1128C192.825 26.1128 191.798 25.3357 191.188 23.6982ZM196.544 20.9226H191.049C191.632 19.1463 192.52 18.3692 193.88 18.3692C194.713 18.3692 195.49 18.7577 195.962 19.4239C196.211 19.8124 196.35 20.1455 196.544 20.9226Z" fill="white"/>
<path fill-rule="evenodd" clip-rule="evenodd" d="M17.9952 9.52055C18.6636 9.52055 19.2546 9.84697 19.6129 10.3468C18.5609 11.1705 17.8863 12.4421 17.8863 13.8689C17.8863 15.0249 18.329 16.0789 19.0566 16.8755C16.01 18.1705 13.8776 21.1567 13.8776 24.6337C13.8776 29.2981 17.7151 33.0792 22.4489 33.0792C27.1827 33.0792 31.0202 29.2981 31.0202 24.6337C31.0202 21.1569 28.888 18.1708 25.8417 16.8756C26.5693 16.0791 27.0121 15.025 27.0121 13.8689C27.0121 12.35 26.2478 11.0071 25.0774 10.1931C25.4402 9.78112 25.9756 9.52055 26.5727 9.52055C27.3014 9.52055 27.8922 8.93849 27.8922 8.22048C27.8922 7.50247 27.3014 6.92041 26.5727 6.92041C24.7901 6.92041 23.2434 7.91566 22.4736 9.373L22.4492 9.37293C22.3321 9.37293 22.216 9.37728 22.1011 9.38583C21.3337 7.9215 19.7831 6.92041 17.9952 6.92041C17.2665 6.92041 16.6758 7.50247 16.6758 8.22048C16.6758 8.93849 17.2665 9.52055 17.9952 9.52055ZM16.2838 24.5864C16.3096 21.2531 19.0599 18.5589 22.4489 18.5589C23.4293 18.5589 24.3562 18.7843 25.1792 19.1855C24.2788 19.7101 23.6736 20.6858 23.6736 21.8027C23.6736 23.4745 25.0295 24.8298 26.7022 24.8298C27.4189 24.8298 28.0775 24.581 28.5961 24.165C28.6081 24.3197 28.6142 24.476 28.6142 24.6337C28.6142 27.9723 25.8809 30.6819 22.4989 30.7084C23.5647 29.9102 24.2528 28.6478 24.2528 27.2271C24.2528 24.8136 22.2672 22.8571 19.8178 22.8571C18.3753 22.8571 17.0938 23.5356 16.2838 24.5864Z" fill="white"/>
</svg>
