<svg width="40" height="40" viewBox="0 0 40 40" fill="none" xmlns="http://www.w3.org/2000/svg">
<path d="M27.6626 2.34033C22.1306 2.34033 17.625 6.83991 17.625 12.3719C17.625 17.9039 22.1306 22.4035 27.6626 22.4035C33.1946 22.4035 37.6942 17.9039 37.6942 12.3719C37.6942 6.83991 33.1946 2.34033 27.6626 2.34033ZM27.6626 21.21C22.787 21.21 18.8185 17.2475 18.8185 12.3719C18.8185 7.49638 22.787 3.53386 27.6626 3.53386C32.5381 3.53386 36.5006 7.49638 36.5006 12.3719C36.5006 17.2475 32.5381 21.21 27.6626 21.21Z" fill="#8753D4"/>
<path d="M36.4985 12.3719C36.4985 17.2474 32.536 21.2099 27.6604 21.2099C22.7849 21.2099 18.8164 17.2474 18.8164 12.3719C18.8164 7.49633 22.7849 3.53381 27.6604 3.53381C32.536 3.53381 36.4985 7.49633 36.4985 12.3719Z" fill="#8753D4" fill-opacity="0.6"/>
<path d="M27.6551 15.1271C27.06 15.1271 26.5763 14.6434 26.5763 14.0484C26.5763 13.7185 26.3094 13.4516 25.9796 13.4516C25.6497 13.4516 25.3828 13.7185 25.3828 14.0484C25.3828 15.0935 26.0959 15.967 27.0583 16.231V16.8247C27.0583 17.1546 27.3252 17.4215 27.6551 17.4215C27.9849 17.4215 28.2518 17.1546 28.2518 16.8247V16.2314C29.2168 15.9678 29.932 15.0939 29.932 14.0484C29.932 12.7954 28.9104 11.7756 27.6551 11.7756C27.06 11.7756 26.5763 11.2919 26.5763 10.6968C26.5763 10.1018 27.06 9.61812 27.6551 9.61812C28.2524 9.61812 28.7384 10.1018 28.7384 10.6968C28.7384 11.0267 29.0054 11.2936 29.3352 11.2936C29.6651 11.2936 29.932 11.0267 29.932 10.6968C29.932 9.65131 29.2168 8.77747 28.2518 8.51387V7.92049C28.2518 7.59064 27.9849 7.32373 27.6551 7.32373C27.3252 7.32373 27.0583 7.59064 27.0583 7.92049V8.5142C26.0959 8.77824 25.3828 9.65171 25.3828 10.6968C25.3828 11.9498 26.4021 12.9691 27.6551 12.9691C28.2524 12.9691 28.7384 13.4534 28.7384 14.0484C28.7384 14.6434 28.2524 15.1271 27.6551 15.1271Z" fill="white"/>
<path d="M39.4306 25.447C38.7025 23.8059 36.7929 23.1256 35.2234 23.8596L27.734 27.3447C27.1074 25.2143 25.1262 23.6865 22.8405 23.6865H19.994C19.7911 23.6865 19.5941 23.603 19.445 23.4598L17.404 21.4427C16.6879 20.7385 15.7331 20.3506 14.7246 20.3506H8.97775V19.909C8.97775 18.996 8.23179 18.256 7.3247 18.256H1.95383C1.0408 18.256 0.300781 18.996 0.300781 19.909V32.2739C0.300781 33.187 1.0408 33.927 1.95383 33.927H7.3247C8.23178 33.927 8.97774 33.187 8.97774 32.2739V32.083L17.959 36.7556C20.3401 37.9969 23.1926 37.9731 25.5857 36.6005L38.1117 29.4274C39.4306 28.6695 40.081 27.0105 39.4306 25.447ZM7.78421 32.2739C7.78421 32.5306 7.57532 32.7335 7.3247 32.7335H1.95383C1.7032 32.7335 1.49431 32.5306 1.49431 32.2739V19.909C1.49431 19.6524 1.70319 19.4495 1.95383 19.4495H7.3247C7.57532 19.4495 7.78421 19.6524 7.78421 19.909V32.2739ZM37.515 28.395L24.9949 35.5681C22.9897 36.7139 20.5609 36.7616 18.508 35.6934L8.97774 30.7343V21.5442H14.7246C15.4228 21.5442 16.0733 21.8127 16.5685 22.2961L18.6095 24.3131C18.9855 24.6772 19.4808 24.8801 19.994 24.8801H22.8405C24.9412 24.8801 26.7434 26.5749 26.7434 28.7829C26.7434 29.0753 26.5047 29.2901 26.2421 29.2901H21.1219C20.7936 29.2901 20.5251 29.5527 20.5251 29.8869C20.5251 30.2151 20.7936 30.4837 21.1219 30.4837H26.2421C27.191 30.4837 27.9369 29.7138 27.9369 28.7829V28.5681L35.7306 24.9397C36.7451 24.4743 37.9088 24.9517 38.3325 25.9184C38.7323 26.8494 38.3624 27.8997 37.515 28.395Z" fill="#8753D4"/>
<path d="M7.78991 19.9087V32.2737C7.78991 32.5303 7.58102 32.7332 7.33039 32.7332H1.95952C1.70889 32.7332 1.5 32.5303 1.5 32.2737V19.9087C1.5 19.6521 1.70889 19.4492 1.95952 19.4492H7.33039C7.58102 19.4492 7.78991 19.6521 7.78991 19.9087Z" fill="#8753D4" fill-opacity="0.6"/>
<path d="M33.2262 14.2731C34.2758 14.2731 35.1296 13.4217 35.1296 12.375C35.1296 11.3254 34.2758 10.4717 33.2262 10.4717C32.1796 10.4717 31.3281 11.3254 31.3281 12.375C31.3281 13.4217 32.1796 14.2731 33.2262 14.2731ZM33.2262 11.6652C33.6179 11.6652 33.9361 11.9834 33.9361 12.375C33.9361 12.7637 33.6179 13.0796 33.2262 13.0796C32.8375 13.0796 32.5217 12.7637 32.5217 12.375C32.5217 11.9834 32.8375 11.6652 33.2262 11.6652Z" fill="white"/>
<path d="M24.3321 12.3751C24.3321 11.3255 23.4784 10.4717 22.4288 10.4717C21.3827 10.4717 20.5312 11.3255 20.5312 12.3751C20.5312 13.4218 21.3827 14.2732 22.4288 14.2732C23.4783 14.2732 24.3321 13.4218 24.3321 12.3751ZM21.7248 12.3751C21.7248 11.9835 22.0406 11.6653 22.4288 11.6653C22.8204 11.6653 23.1386 11.9835 23.1386 12.3751C23.1386 12.7638 22.8204 13.0797 22.4288 13.0797C22.0406 13.0797 21.7248 12.7638 21.7248 12.3751Z" fill="white"/>
</svg>
