<svg width="40" height="40" viewBox="0 0 40 40" fill="none" xmlns="http://www.w3.org/2000/svg">
<path d="M38.2812 37.4321H37.0413V18.5921L38.1613 18.9178C38.3898 18.9807 38.6298 18.8493 38.6927 18.6207C38.7613 18.3921 38.6298 18.1578 38.4013 18.0893C34.4412 16.9578 31.7213 16.1807 27.5613 14.9864V8.76355L27.7384 8.84926C28.1898 9.08355 28.7155 9.06069 29.1498 8.79784C30.1155 8.20355 30.0584 6.78641 29.0527 6.27212L20.1898 1.75784C20.0698 1.69498 19.9213 1.69498 19.8013 1.75784L10.9384 6.27784C10.4527 6.52355 10.1498 7.02069 10.1498 7.56926C10.1498 8.64926 11.2927 9.34641 12.2527 8.85498L12.4298 8.76355V14.9864C8.26982 16.1807 5.54982 16.9578 1.58982 18.0893C1.36696 18.1578 1.23554 18.3921 1.29839 18.6207C1.36125 18.8493 1.60125 18.9807 1.82982 18.9178L2.94982 18.5921V37.4321H1.70982C1.47554 37.4321 1.28125 37.6264 1.28125 37.8607C1.28125 38.095 1.47554 38.2893 1.70982 38.2893H38.2812C38.5155 38.2893 38.7098 38.095 38.7098 37.8607C38.7098 37.6264 38.5155 37.4321 38.2812 37.4321ZM9.83554 37.4321H6.40696V34.535H9.83554V37.4321ZM9.83554 33.6778H6.40696V31.3464H9.83554V33.6778ZM9.83554 30.4893H6.40696V28.1578H9.83554V30.4893ZM9.83554 27.3007H6.40696V23.0264C6.40696 22.0835 7.17268 21.3121 8.12125 21.3121C9.06411 21.3121 9.83554 22.0835 9.83554 23.0264V27.3007ZM12.4298 37.4321H10.6927V23.0264C10.6927 21.6093 9.53839 20.455 8.12125 20.455C6.69839 20.455 5.54982 21.6093 5.54982 23.0264V37.4321H3.80696V18.3464L12.4298 15.8778V37.4321ZM11.8641 8.08926C11.4698 8.29498 11.007 8.00926 11.007 7.56926C11.007 7.34641 11.1327 7.14069 11.327 7.04355L19.9955 2.62069L28.6641 7.03784C29.0641 7.23784 29.1041 7.82069 28.7041 8.06641C28.5212 8.17498 28.3155 8.18069 28.127 8.08926L20.1898 4.04355C20.1441 4.02069 20.0984 4.01498 20.0527 4.00926C19.967 3.99784 19.8813 4.00355 19.8013 4.04355C19.5098 4.19212 13.4584 7.27784 11.8641 8.08926ZM22.7098 37.4321H17.2812V27.4778H22.7098V37.4321ZM26.7041 37.4321H23.567V27.4778H23.9955C24.2298 27.4778 24.4241 27.2893 24.4241 27.0493C24.4241 26.815 24.2298 26.6207 23.9955 26.6207H15.9955C15.7613 26.6207 15.567 26.815 15.567 27.0493C15.567 27.2893 15.7613 27.4778 15.9955 27.4778H16.4241V37.4321H13.287V8.32926L19.9955 4.90641L26.7041 8.32926V37.4321ZM33.5841 37.4321H30.1555V34.535H33.5841V37.4321ZM33.5841 33.6778H30.1555V31.3464H33.5841V33.6778ZM33.5841 30.4893H30.1555V28.1578H33.5841V30.4893ZM33.5841 27.3007H30.1555V23.0264C30.1555 22.0835 30.927 21.3121 31.8698 21.3121C32.8184 21.3121 33.5841 22.0835 33.5841 23.0264V27.3007ZM36.1841 37.4321H34.4412V23.0264C34.4412 21.6093 33.2927 20.455 31.8698 20.455C30.4527 20.455 29.2984 21.6093 29.2984 23.0264V37.4321H27.5613V15.8778L36.1841 18.3464V37.4321Z" fill="#8753D4"/>
<path d="M28.6971 8.06656C28.5143 8.17514 28.3086 8.18085 28.12 8.08942L20.1829 4.04371C20.1371 4.02085 20.0914 4.01514 20.0457 4.00942C19.96 3.99799 19.8743 4.00371 19.7943 4.04371C19.5029 4.19228 13.4514 7.27799 11.8571 8.08942C11.4629 8.29514 11 8.00942 11 7.56942C11 7.34656 11.1257 7.14085 11.32 7.04371L19.9886 2.62085L28.6571 7.03799C29.0571 7.23799 29.0971 7.82085 28.6971 8.06656Z" fill="#8753D4" fill-opacity="0.6"/>
<path d="M6.40234 28.158H9.83092V30.4894H6.40234V28.158Z" fill="#8753D4" fill-opacity="0.6"/>
<path d="M6.40234 34.5352H9.83092V37.4323H6.40234V34.5352Z" fill="#8753D4" fill-opacity="0.6"/>
<path d="M17.2812 27.4778V37.4321H22.7098V27.4778H17.2812ZM18.9955 33.0264C18.9955 33.2664 18.8013 33.4549 18.567 33.4549C18.3327 33.4549 18.1384 33.2664 18.1384 33.0264V31.8835C18.1384 31.6492 18.3327 31.4549 18.567 31.4549C18.8013 31.4549 18.9955 31.6492 18.9955 31.8835V33.0264Z" fill="#8753D4" fill-opacity="0.6"/>
<path d="M30.1523 34.5352H33.5809V37.4323H30.1523V34.5352Z" fill="#8753D4" fill-opacity="0.6"/>
<path d="M30.1523 28.158H33.5809V30.4894H30.1523V28.158Z" fill="#8753D4" fill-opacity="0.6"/>
<path d="M19.9933 8.3692C18.0219 8.3692 16.4219 9.97492 16.4219 11.9406V20.9635C16.4219 21.1978 16.6162 21.3921 16.8504 21.3921H23.1362C23.3704 21.3921 23.5647 21.1978 23.5647 20.9635V11.9406C23.5647 9.97492 21.9647 8.3692 19.9933 8.3692ZM19.5647 20.5349H17.279V18.0835H19.5647V20.5349ZM19.5647 17.2263H17.279V14.7806H19.5647V17.2263ZM19.5647 13.9235H17.279V11.9406C17.279 10.5921 18.2733 9.47777 19.5647 9.27206V13.9235ZM22.7076 20.5349H20.4219V18.0835H22.7076V20.5349ZM22.7076 17.2263H20.4219V14.7806H22.7076V17.2263ZM22.7076 13.9235H20.4219V9.27206C21.7133 9.47777 22.7076 10.5921 22.7076 11.9406V13.9235Z" fill="#8753D4"/>
<path d="M22.7115 11.9408V13.9236H20.4258V9.27222C21.7172 9.47793 22.7115 10.5922 22.7115 11.9408Z" fill="#8753D4" fill-opacity="0.6"/>
<path d="M19.5631 9.27222V13.9236H17.2773V11.9408C17.2773 10.5922 18.2716 9.47793 19.5631 9.27222Z" fill="#8753D4" fill-opacity="0.6"/>
<path d="M17.2773 14.781H19.5631V17.2267H17.2773V14.781Z" fill="#8753D4" fill-opacity="0.6"/>
<path d="M20.4258 14.781H22.7115V17.2267H20.4258V14.781Z" fill="#8753D4" fill-opacity="0.6"/>
<path d="M20.4258 18.0837H22.7115V20.5352H20.4258V18.0837Z" fill="#8753D4" fill-opacity="0.6"/>
<path d="M17.2773 18.0837H19.5631V20.5352H17.2773V18.0837Z" fill="#8753D4" fill-opacity="0.6"/>
<path d="M18.9978 31.8836V33.0264C18.9978 33.2664 18.8035 33.455 18.5692 33.455C18.3349 33.455 18.1406 33.2664 18.1406 33.0264V31.8836C18.1406 31.6493 18.3349 31.455 18.5692 31.455C18.8035 31.455 18.9978 31.6493 18.9978 31.8836Z" fill="#8753D4"/>
<path d="M32.1562 23.2756H31.5848C31.3482 23.2756 31.1562 23.4676 31.1562 23.7042C31.1562 23.9408 31.3482 24.1328 31.5848 24.1328H32.1562C32.3928 24.1328 32.5848 23.9408 32.5848 23.7042C32.5848 23.4676 32.3928 23.2756 32.1562 23.2756Z" fill="#8753D4"/>
<path d="M8.40625 23.2756H7.83482C7.59825 23.2756 7.40625 23.4676 7.40625 23.7042C7.40625 23.9408 7.59825 24.1328 7.83482 24.1328H8.40625C8.64282 24.1328 8.83482 23.9408 8.83482 23.7042C8.83482 23.4676 8.64282 23.2756 8.40625 23.2756Z" fill="#8753D4"/>
</svg>
