<svg width="40" height="40" viewBox="0 0 40 40" fill="none" xmlns="http://www.w3.org/2000/svg">
<path d="M5.11159 36.187C5.20248 36.278 5.32326 36.3238 5.44404 36.3238C5.5617 36.3238 5.68061 36.2798 5.7715 36.1925C5.95516 36.0148 5.95765 35.7247 5.77648 35.5446C3.7021 33.4763 2.06165 30.964 0.90119 28.078C0.80656 27.8429 0.53699 27.7281 0.295435 27.8203C0.0557485 27.9131 -0.0619159 28.1787 0.0327137 28.4145C1.23924 31.4153 2.94818 34.0301 5.11159 36.187Z" fill="#8753D4"/>
<path d="M7.69905 38.2699C7.84037 38.2699 7.9792 38.2077 8.07196 38.0892C8.22761 37.8877 8.18776 37.6006 7.98232 37.4474C7.7557 37.2788 7.53531 37.1066 7.31991 36.9314C7.12256 36.7701 6.82746 36.7958 6.66248 36.9918C6.4975 37.1866 6.52489 37.4755 6.72411 37.6367C6.94948 37.8205 7.18045 38.0006 7.41703 38.1771C7.50107 38.2394 7.60006 38.2699 7.69905 38.2699Z" fill="#8753D4"/>
<path d="M17.9279 12.4505H24.1859C24.4436 12.4505 24.6528 12.2454 24.6528 11.9925C24.6528 11.7397 24.4436 11.5345 24.1859 11.5345H17.9279C17.6701 11.5345 17.4609 11.7397 17.4609 11.9925C17.4609 12.2454 17.6701 12.4505 17.9279 12.4505Z" fill="#8753D4"/>
<path d="M15.3224 12.4507H16.0452C16.3029 12.4507 16.5121 12.2455 16.5121 11.9927C16.5121 11.7399 16.3029 11.5347 16.0452 11.5347H15.3224C15.0647 11.5347 14.8555 11.7399 14.8555 11.9927C14.8555 12.2455 15.0647 12.4507 15.3224 12.4507Z" fill="#8753D4"/>
<path d="M38.3004 13.9796H34.9136V6.08981C34.9136 5.68677 34.7269 5.30816 34.4156 5.05168C34.0981 4.7952 33.6872 4.69139 33.2825 4.76467C25.7308 6.12034 20.632 2.15713 18.7955 0.392308C18.534 0.135829 18.1854 -0.0168373 17.8243 0.00148263C17.4445 0.00148263 17.0959 0.148042 16.8282 0.416734C15.0601 2.20598 10.1169 6.21194 2.32866 4.76467C1.93022 4.69139 1.5131 4.7952 1.20182 5.05168C0.884311 5.30816 0.703767 5.69287 0.703767 6.09591V19.0603C0.697541 19.2374 0.492096 36.4765 17.4943 39.9634C17.6001 39.9878 17.6998 40 17.8056 40C17.9052 40 18.0048 39.9878 18.0982 39.9634C29.1923 37.6917 32.9152 29.5454 34.1541 24.6418H38.3004C39.2342 24.6418 40 23.8968 40 22.9808V15.6406C40 14.7246 39.2342 13.9796 38.3004 13.9796ZM17.8927 39.0718C17.8367 39.084 17.7745 39.084 17.6998 39.0657C1.45084 35.7376 1.61894 19.7626 1.63761 19.0725V6.09591C1.63761 5.91271 1.73722 5.8089 1.79325 5.76005C1.84306 5.7173 1.94267 5.65623 2.07341 5.65623C2.09831 5.65623 2.12944 5.66234 2.16057 5.66845C10.3846 7.189 15.6266 2.94489 17.4943 1.05183C17.5877 0.966332 17.6998 0.917479 17.8243 0.917479H17.8305C17.9426 0.917479 18.0484 0.960226 18.1355 1.04572C20.0842 2.90825 25.4693 7.10351 33.4568 5.66845C33.6249 5.63181 33.7557 5.71119 33.8179 5.76005C33.9175 5.83943 33.9798 5.96157 33.9798 6.08981V13.9796H31.8008V9.44846C31.8008 9.08206 31.6514 8.74009 31.3899 8.48361C31.1222 8.22713 30.7549 8.09279 30.4 8.09279H30.232C25.0336 8.09279 21.0803 6.02263 18.6772 4.28224C18.1854 3.93416 17.513 3.94027 17.0336 4.29445C14.699 6.04095 10.8142 8.12332 5.57844 8.12332H5.22358C4.85627 8.12332 4.50141 8.25156 4.2337 8.50804C3.95977 8.76452 3.81659 9.1126 3.81659 9.47899V19.1214C3.80413 19.7076 3.67339 33.5453 17.4819 36.8307C17.5815 36.8551 17.6873 36.8673 17.7994 36.8673C17.9114 36.8673 18.0297 36.8551 18.1418 36.8307C26.316 34.8765 29.6218 29.2035 30.9541 24.6418H33.1954C31.7323 30.2172 27.8787 37.0261 17.8927 39.0718ZM9.08347 24.1533C9.38853 24.4586 9.81187 24.6418 10.2788 24.6418H29.9829C28.6693 28.9164 25.5129 34.1315 17.9363 35.933C17.8554 35.9513 17.7558 35.9513 17.6873 35.9391C4.61347 32.8247 4.73798 19.7015 4.75043 19.1336V9.47899C4.75043 9.35686 4.79401 9.24694 4.88739 9.16145C4.96833 9.08206 5.07416 9.03932 5.2049 9.03932H5.21735H5.57844C11.0695 9.03932 15.1472 6.85314 17.6001 5.02114C17.7496 4.91122 17.9675 4.91122 18.1231 5.02114C20.6383 6.84092 24.7783 9.00878 30.232 9.00878H30.4063C30.5246 9.00268 30.6428 9.05153 30.73 9.13702C30.8172 9.22252 30.867 9.33244 30.867 9.44846V13.9796H10.2788C9.81187 13.9796 9.38853 14.1628 9.08347 14.4681C8.77219 14.7673 8.58542 15.1826 8.58542 15.6406V22.9808C8.58542 23.4388 8.77219 23.854 9.08347 24.1533ZM39.0661 22.9808C39.0661 23.3899 38.7237 23.7258 38.3004 23.7258H10.7768C10.7768 23.7258 10.6835 23.7258 10.285 23.7258C10.0733 23.7258 9.88035 23.6403 9.74339 23.506C9.60643 23.3716 9.51927 23.1884 9.51927 22.9808V15.6406C9.51927 15.433 9.60643 15.2498 9.74339 15.1154C9.88035 14.9811 10.0733 14.8956 10.285 14.8956H38.3004C38.7237 14.8956 39.0661 15.2253 39.0661 15.6406V22.9808Z" fill="#8753D4"/>
<path d="M31.8058 13.9794V9.44828C31.8058 9.08188 31.6563 8.73991 31.3949 8.48343C31.1272 8.22695 30.7598 8.0926 30.405 8.0926H30.2369C25.0385 8.0926 21.0852 6.02245 18.6821 4.28206C18.1903 3.93398 17.5179 3.94009 17.0385 4.29427C14.7039 6.04077 10.8191 8.12314 5.58337 8.12314H5.22851C4.8612 8.12314 4.50634 8.25138 4.23864 8.50786C3.96471 8.76433 3.82152 9.11241 3.82152 9.47881V19.1212C3.80907 19.7074 3.67833 33.5451 17.4868 36.8305C17.5864 36.8549 17.6922 36.8671 17.8043 36.8671C17.9164 36.8671 18.0346 36.8549 18.1467 36.8305C26.321 34.8763 29.6268 29.2033 30.9591 24.6416H33.2003C31.7373 30.217 27.8836 37.0259 17.8977 39.0716C17.8417 39.0838 17.7794 39.0838 17.7047 39.0655C1.45578 35.7374 1.62387 19.7624 1.64255 19.0723V6.09573C1.64255 5.91253 1.74216 5.80872 1.79819 5.75987C1.84799 5.71712 1.9476 5.65605 2.07834 5.65605C2.10324 5.65605 2.13437 5.66216 2.1655 5.66827C10.3896 7.18882 15.6316 2.9447 17.4992 1.05164C17.5926 0.966151 17.7047 0.917297 17.8292 0.917297H17.8354C17.9475 0.917297 18.0533 0.960044 18.1405 1.04554C20.0891 2.90806 25.4743 7.10333 33.4618 5.66827C33.6299 5.63163 33.7606 5.71101 33.8229 5.75987C33.9225 5.83925 33.9847 5.96138 33.9847 6.08962V13.9794H31.8058Z" fill="#8753D4" fill-opacity="0.6"/>
<path d="M13.2947 17.3931C12.2177 17.3931 11.3398 18.2541 11.3398 19.3106C11.3398 20.367 12.2177 21.228 13.2947 21.228C14.378 21.228 15.2495 20.367 15.2495 19.3106C15.2495 18.2541 14.378 17.3931 13.2947 17.3931ZM13.2947 20.312C12.7344 20.312 12.2737 19.8601 12.2737 19.3106C12.2737 18.761 12.7344 18.3091 13.2947 18.3091C13.8612 18.3091 14.3157 18.761 14.3157 19.3106C14.3157 19.8601 13.8612 20.312 13.2947 20.312Z" fill="#8753D4"/>
<path d="M14.3272 19.3106C14.3272 19.8602 13.8727 20.3121 13.3062 20.3121C12.7459 20.3121 12.2852 19.8602 12.2852 19.3106C12.2852 18.761 12.7459 18.3091 13.3062 18.3091C13.8727 18.3091 14.3272 18.761 14.3272 19.3106Z" fill="#8753D4" fill-opacity="0.6"/>
<path d="M18.8087 17.3931C17.7255 17.3931 16.8477 18.2541 16.8477 19.3106C16.8477 20.367 17.7255 21.228 18.8087 21.228C19.8858 21.228 20.7636 20.367 20.7636 19.3106C20.7636 18.2541 19.8858 17.3931 18.8087 17.3931ZM18.8087 20.312C18.2422 20.312 17.7815 19.8601 17.7815 19.3106C17.7815 18.761 18.2422 18.3091 18.8087 18.3091C19.369 18.3091 19.8297 18.761 19.8297 19.3106C19.8297 19.8601 19.369 20.312 18.8087 20.312Z" fill="#8753D4"/>
<path d="M19.8334 19.3106C19.8334 19.8602 19.3727 20.3121 18.8124 20.3121C18.2459 20.3121 17.7852 19.8602 17.7852 19.3106C17.7852 18.761 18.2459 18.3091 18.8124 18.3091C19.3727 18.3091 19.8334 18.761 19.8334 19.3106Z" fill="#8753D4" fill-opacity="0.6"/>
<path d="M24.2986 17.3932C23.2216 17.3932 22.3438 18.2543 22.3438 19.3107C22.3438 20.3672 23.2216 21.2282 24.2986 21.2282C25.3756 21.2282 26.2534 20.3672 26.2534 19.3107C26.2534 18.2543 25.3756 17.3932 24.2986 17.3932ZM24.2986 20.3122C23.7321 20.3122 23.2776 19.8603 23.2776 19.3107C23.2776 18.7611 23.7321 18.3092 24.2986 18.3092C24.8589 18.3092 25.3196 18.7611 25.3196 19.3107C25.3196 19.8603 24.8589 20.3122 24.2986 20.3122Z" fill="#8753D4"/>
<path d="M24.3023 20.3122C24.8661 20.3122 25.3233 19.8638 25.3233 19.3107C25.3233 18.7576 24.8661 18.3092 24.3023 18.3092C23.7384 18.3092 23.2812 18.7576 23.2812 19.3107C23.2812 19.8638 23.7384 20.3122 24.3023 20.3122Z" fill="#8753D4" fill-opacity="0.6"/>
<path d="M29.7869 17.3932C28.7098 17.3932 27.832 18.2543 27.832 19.3107C27.832 20.3672 28.7098 21.2282 29.7869 21.2282C30.8639 21.2282 31.7417 20.3672 31.7417 19.3107C31.7417 18.2543 30.8639 17.3932 29.7869 17.3932ZM29.7869 20.3122C29.2203 20.3122 28.7659 19.8603 28.7659 19.3107C28.7659 18.7611 29.2203 18.3092 29.7869 18.3092C30.3534 18.3092 30.8079 18.7611 30.8079 19.3107C30.8079 19.8603 30.3534 20.3122 29.7869 20.3122Z" fill="#8753D4"/>
<path d="M29.7905 20.3121C30.3544 20.3121 30.8115 19.8637 30.8115 19.3106C30.8115 18.7575 30.3544 18.3091 29.7905 18.3091C29.2266 18.3091 28.7695 18.7575 28.7695 19.3106C28.7695 19.8637 29.2266 20.3121 29.7905 20.3121Z" fill="#8753D4" fill-opacity="0.6"/>
<path d="M35.283 17.3931C34.2059 17.3931 33.3281 18.2541 33.3281 19.3106C33.3281 20.367 34.2059 21.228 35.283 21.228C36.36 21.228 37.2378 20.367 37.2378 19.3106C37.2378 18.2541 36.36 17.3931 35.283 17.3931ZM35.283 20.312C34.7227 20.312 34.262 19.8601 34.262 19.3106C34.262 18.761 34.7227 18.3091 35.283 18.3091C35.8495 18.3091 36.304 18.761 36.304 19.3106C36.304 19.8601 35.8495 20.312 35.283 20.312Z" fill="#8753D4"/>
<path d="M36.3076 19.3106C36.3076 19.8602 35.8532 20.3121 35.2866 20.3121C34.7263 20.3121 34.2656 19.8602 34.2656 19.3106C34.2656 18.761 34.7263 18.3091 35.2866 18.3091C35.8532 18.3091 36.3076 18.761 36.3076 19.3106Z" fill="#8753D4" fill-opacity="0.6"/>
</svg>
