<svg width="40" height="40" viewBox="0 0 40 40" fill="none" xmlns="http://www.w3.org/2000/svg">
<path d="M33.6562 12.7903H25.8005V8.95805C25.8005 5.76835 23.2074 3.18292 20.0254 3.18292H7.22825C4.03856 3.18292 1.45312 5.76835 1.45312 8.95805V21.7628C1.45312 24.7536 3.74022 27.2243 6.73108 27.5073V30.131C6.73108 31.6608 8.52096 32.487 9.68366 31.5002L14.3803 27.5379H18.1666V28.2876C18.1666 30.98 20.3619 33.1754 23.0544 33.1754H27.6975L31.5527 36.4339C32.5853 37.3136 34.1687 36.5793 34.1687 35.2254V33.1524C36.6241 32.8923 38.544 30.8118 38.544 28.2876V17.6781C38.544 14.9856 36.3487 12.7903 33.6562 12.7903ZM14.1737 26.3905C14.036 26.3905 13.906 26.4364 13.7989 26.5206L8.94171 30.6282C8.52097 30.98 7.87846 30.6818 7.87846 30.131V26.9642C7.87846 26.643 7.5419 26.3905 7.22825 26.3905C4.67345 26.3905 2.6005 24.31 2.6005 21.7628V8.95805C2.6005 6.4032 4.67344 4.3303 7.22825 4.3303H20.0254C22.5725 4.3303 24.6531 6.4032 24.6531 8.95805V21.7628C24.6531 24.31 22.5725 26.3905 20.0254 26.3905H14.1737ZM37.3967 28.2876C37.3967 30.3528 35.7215 32.028 33.595 32.028C33.2814 32.028 33.0213 32.2881 33.0213 32.6017V35.2254C33.0213 35.6002 32.5853 35.8067 32.2947 35.5619L28.2712 32.1657C28.1717 32.0739 28.0417 32.028 27.904 32.028H23.0544C20.9892 32.028 19.314 30.3528 19.314 28.2876V27.5379H20.0254C23.2074 27.5379 25.8005 24.9449 25.8005 21.7628V13.9377H33.6562C35.7215 13.9377 37.3967 15.6129 37.3967 17.6781L37.3967 28.2876Z" fill="#8753D4"/>
<path d="M37.3951 17.6782V28.2876C37.3951 30.3529 35.72 32.0281 33.5935 32.0281C33.2799 32.0281 33.0198 32.2881 33.0198 32.6017V35.2255C33.0198 35.6003 32.5838 35.8068 32.2932 35.562L28.2697 32.1658C28.1702 32.074 28.0402 32.0281 27.9025 32.0281H23.0529C20.9877 32.0281 19.3125 30.3529 19.3125 28.2876V27.538H20.0239C23.2059 27.538 25.799 24.9449 25.799 21.7629V13.9377H33.6547C35.72 13.9377 37.3951 15.6129 37.3951 17.6782Z" fill="#8753D4" fill-opacity="0.6"/>
<path d="M13.1979 7.4129C8.82252 7.4129 5.26562 10.9774 5.26562 15.3528C5.26562 19.7281 8.82252 23.285 13.1979 23.285C17.5808 23.285 21.1377 19.7281 21.1377 15.3528C21.1377 10.9774 17.5808 7.4129 13.1979 7.4129ZM13.1979 22.1376C9.45741 22.1376 6.41301 19.0932 6.41301 15.3528C6.41301 11.6047 9.45741 8.56027 13.1979 8.56027C16.946 8.56027 19.9903 11.6047 19.9903 15.3528C19.9903 19.0932 16.946 22.1376 13.1979 22.1376Z" fill="#8753D4"/>
<path d="M13.195 8.56036C9.45456 8.56036 6.41016 11.6048 6.41016 15.3528C6.41016 19.0933 9.45456 22.1377 13.195 22.1377C16.9431 22.1377 19.9875 19.0933 19.9875 15.3528C19.9875 11.6048 16.9431 8.56036 13.195 8.56036ZM17.708 17.9536C17.2797 18.6955 16.2394 18.9709 15.5051 18.5349L14.809 18.1295V18.948C14.809 19.8353 14.0823 20.5543 13.195 20.5543C12.2924 20.5543 11.5887 19.8123 11.5887 18.948V18.1295L10.885 18.5349C10.12 18.9862 9.13331 18.7262 8.68964 17.9536C8.24597 17.181 8.51368 16.1943 9.27859 15.7506L9.98235 15.3452L9.27859 14.9398C8.52133 14.5038 8.23832 13.5247 8.68964 12.7445C9.118 12.0102 10.1047 11.7195 10.8773 12.1478L11.5887 12.5609V11.7501C11.5887 10.8628 12.3077 10.1438 13.195 10.1438C14.1129 10.1438 14.809 10.8781 14.809 11.7501V12.5609L15.5127 12.1555C16.2776 11.7118 17.2644 11.9719 17.708 12.7445C18.1746 13.5859 17.838 14.5191 17.119 14.9398L16.4153 15.3452L17.119 15.7506C17.6315 16.0489 17.9222 16.592 17.9222 17.1504C17.9222 17.4258 17.8534 17.7012 17.708 17.9536Z" fill="#8753D4" fill-opacity="0.6"/>
<path d="M17.1183 15.7502L16.4146 15.3448L17.1183 14.9394C17.8373 14.5187 18.1739 13.5855 17.7073 12.7441C17.2636 11.9715 16.2769 11.7115 15.512 12.1551L14.8083 12.5605V11.7497C14.8083 10.8777 14.1122 10.1434 13.1943 10.1434C12.307 10.1434 11.588 10.8624 11.588 11.7497V12.5605L10.8766 12.1475C10.104 11.7191 9.11729 12.0098 8.68893 12.7441C8.23761 13.5244 8.52063 14.5034 9.27789 14.9394L9.98165 15.3448L9.27789 15.7502C8.51297 16.1939 8.24526 17.1806 8.68893 17.9532C9.1326 18.7258 10.1193 18.9858 10.8842 18.5346L11.588 18.1291V18.9476C11.588 19.812 12.2917 20.5539 13.1943 20.5539C14.0816 20.5539 14.8083 19.8349 14.8083 18.9476V18.1291L15.5043 18.5346C16.2387 18.9706 17.279 18.6952 17.7073 17.9532C17.8526 17.7008 17.9215 17.4254 17.9215 17.1501C17.9215 16.5916 17.6308 16.0486 17.1183 15.7502ZM16.7129 17.3795C16.5906 17.5937 16.3075 17.6779 16.0857 17.5478L14.5176 16.6375C14.1428 16.4234 13.6609 16.6911 13.6609 17.1347V18.9476C13.6609 19.3224 13.1408 19.5443 12.873 19.2688C12.7812 19.1847 12.7353 19.0624 12.7353 18.9476V17.1347C12.7353 16.6987 12.2534 16.4234 11.871 16.6452L10.3105 17.5478C10.0887 17.6702 9.81333 17.6013 9.68331 17.3795C9.55329 17.1577 9.62976 16.8747 9.85157 16.7446L11.4197 15.842C11.8022 15.6202 11.8022 15.0695 11.4197 14.8476L9.85157 13.9451C9.62976 13.815 9.55329 13.5396 9.68331 13.3178C9.80568 13.1036 10.0887 13.0271 10.3105 13.1495L11.871 14.0521C12.2534 14.2663 12.7353 13.9986 12.7353 13.5549V11.7497C12.7353 11.4973 12.9419 11.2908 13.1943 11.2908C13.4697 11.2908 13.6609 11.4973 13.6609 11.7497V13.5549C13.6609 13.9986 14.1428 14.2663 14.5176 14.0521L16.0857 13.1495C16.3075 13.0195 16.5906 13.096 16.7053 13.3102C16.8506 13.5626 16.7512 13.8226 16.5446 13.9451L14.9765 14.8476C14.5941 15.0695 14.5941 15.6202 14.9765 15.842L16.5446 16.7446C16.7665 16.8747 16.843 17.1577 16.7129 17.3795Z" fill="#8753D4"/>
</svg>
