<svg width="40" height="40" viewBox="0 0 40 40" fill="none" xmlns="http://www.w3.org/2000/svg">
<path d="M33.5779 34.014V23.7511C33.5779 18.654 30.7436 14.214 26.5779 11.8883C27.0693 11.4654 27.3893 10.8483 27.3893 10.1454C27.3893 9.00825 26.555 8.06541 25.4693 7.87111L26.5607 4.16826C26.7664 3.39113 26.6007 2.57399 26.1036 1.93968C25.6121 1.29968 24.8693 0.93396 24.0636 0.93396C23.235 0.93396 22.5036 1.31684 22.035 1.91683C21.995 1.87111 21.9664 1.81398 21.9264 1.77398C21.4407 1.23683 20.7436 0.93396 20.0236 0.93396H19.9607C19.2407 0.93396 18.5436 1.23683 18.0579 1.77398C18.0179 1.81398 17.9893 1.87111 17.9493 1.91683C17.4807 1.31684 16.7493 0.93396 15.9264 0.93396C15.115 0.93396 14.3721 1.29968 13.8807 1.93968C13.3835 2.57399 13.2179 3.39113 13.4293 4.18539L14.515 7.87111C13.4293 8.06541 12.6007 9.00825 12.6007 10.1454C12.6007 10.8483 12.915 11.4654 13.4064 11.8883C9.24069 14.214 6.40642 18.654 6.40642 23.7511V34.014C5.70926 34.014 5.07498 34.294 4.61785 34.7511C4.16071 35.2083 3.875 35.8425 3.875 36.5397C3.875 37.934 5.01214 39.0654 6.40642 39.0654H33.5778C34.9721 39.0654 36.1093 37.934 36.1093 36.5397C36.1093 35.1454 34.9722 34.014 33.5779 34.014ZM22.6236 3.39113C22.6922 2.64256 23.3093 2.07682 24.0636 2.07682C24.5093 2.07682 24.9264 2.28256 25.2007 2.63684C25.475 2.99113 25.5664 3.44826 25.4579 3.86539L24.2922 7.8311H22.195L22.6236 3.39113ZM18.9036 2.54539C19.1779 2.24255 19.555 2.07682 19.9607 2.07682H20.0236C20.4293 2.07682 20.8065 2.24255 21.0865 2.54539C21.355 2.83683 21.4807 3.21399 21.4579 3.60256L21.0464 7.83111H18.9379L18.5264 3.61397C18.5036 3.21399 18.6293 2.83683 18.9036 2.54539ZM14.7836 2.63684C15.0579 2.28255 15.475 2.07682 15.9264 2.07682C16.675 2.07682 17.2922 2.64256 17.3607 3.39685L17.7893 7.83111H15.6979L14.5321 3.88255C14.4179 3.44826 14.5093 2.99113 14.7836 2.63684ZM14.915 8.97397H25.075C25.7207 8.97397 26.2464 9.4997 26.2464 10.1454C26.2464 10.7911 25.7207 11.3168 25.075 11.3168H14.915C14.2693 11.3168 13.7436 10.7911 13.7436 10.1454C13.7436 9.4997 14.2693 8.97397 14.915 8.97397ZM7.54931 23.7511C7.54931 18.7397 10.5379 14.4197 14.8179 12.454C14.8464 12.454 14.8807 12.4597 14.915 12.4597H25.075C25.1036 12.4597 25.1379 12.454 25.1664 12.454C29.4465 14.4197 32.435 18.7397 32.435 23.7511V34.0082H7.54931V23.7511ZM33.5779 37.9226H6.40645C5.64072 37.9226 5.01789 37.2997 5.01789 36.5397C5.01789 35.774 5.64073 35.1568 6.40645 35.1568H33.5779C34.3436 35.1568 34.9664 35.774 34.9664 36.5397C34.9664 37.2997 34.3436 37.9226 33.5779 37.9226Z" fill="#8753D4"/>
<path d="M34.9681 36.5395C34.9681 37.2995 34.3452 37.9223 33.5795 37.9223H6.4081C5.64237 37.9223 5.01953 37.2995 5.01953 36.5395C5.01953 35.7738 5.64237 35.1566 6.4081 35.1566H33.5795C34.3452 35.1566 34.9681 35.7738 34.9681 36.5395Z" fill="#8753D4" fill-opacity="0.6"/>
<path d="M26.2411 10.1455C26.2411 10.7911 25.7154 11.3169 25.0697 11.3169H14.9097C14.264 11.3169 13.7383 10.7911 13.7383 10.1455C13.7383 9.49974 14.264 8.974 14.9097 8.974H25.0697C25.7154 8.974 26.2411 9.49974 26.2411 10.1455Z" fill="#8753D4" fill-opacity="0.6"/>
<path d="M19.9907 16.094C15.5393 16.094 11.9221 19.7169 11.9221 24.1683C11.9221 28.6197 15.5393 32.2426 19.9907 32.2426C24.4479 32.2426 28.0707 28.6197 28.0707 24.1683C28.0707 19.7169 24.4479 16.094 19.9907 16.094ZM19.9907 31.0997C16.1736 31.0997 13.065 27.9911 13.065 24.1683C13.065 20.3454 16.1735 17.2369 19.9907 17.2369C23.8135 17.2369 26.9278 20.3454 26.9278 24.1683C26.9278 27.9911 23.8136 31.0997 19.9907 31.0997Z" fill="#8753D4"/>
<path d="M19.9882 17.2369C16.1711 17.2369 13.0625 20.3454 13.0625 24.1683C13.0625 27.9912 16.1711 31.0997 19.9882 31.0997C23.8111 31.0997 26.9254 27.9912 26.9254 24.1683C26.9254 20.3454 23.8111 17.2369 19.9882 17.2369ZM19.9997 23.5969C21.1311 23.5969 22.0568 24.5226 22.0568 25.6597C22.0568 26.5969 21.4225 27.3797 20.5711 27.6312V27.9626C20.5711 28.2826 20.3139 28.534 19.9997 28.534C19.6797 28.534 19.4282 28.2826 19.4282 27.9626V27.6312C18.5711 27.3797 17.9368 26.5969 17.9368 25.6597C17.9368 25.3454 18.194 25.0883 18.5082 25.0883C18.8225 25.0883 19.0797 25.3454 19.0797 25.6597C19.0797 26.1626 19.4911 26.574 19.9997 26.574C20.5025 26.574 20.914 26.1626 20.914 25.6597C20.914 25.1512 20.5025 24.7397 19.9997 24.7397C18.8625 24.7397 17.9368 23.8197 17.9368 22.6826C17.9368 21.7455 18.5711 20.9626 19.4282 20.7112V20.374C19.4282 20.0597 19.6797 19.8026 19.9997 19.8026C20.3139 19.8026 20.5711 20.0597 20.5711 20.374V20.7112C21.4225 20.9626 22.0568 21.7455 22.0568 22.6826C22.0568 22.9969 21.7997 23.254 21.4854 23.254C21.1711 23.254 20.914 22.9969 20.914 22.6826C20.914 22.174 20.5025 21.7626 19.9997 21.7626C19.4911 21.7626 19.0797 22.174 19.0797 22.6826C19.0797 23.1854 19.4911 23.5969 19.9997 23.5969Z" fill="#8753D4" fill-opacity="0.6"/>
<path d="M22.0578 25.6596C22.0578 26.5968 21.4234 27.3796 20.572 27.6311V27.9625C20.572 28.2825 20.3149 28.5339 20.0006 28.5339C19.6806 28.5339 19.4292 28.2825 19.4292 27.9625V27.6311C18.572 27.3796 17.9377 26.5968 17.9377 25.6596C17.9377 25.3454 18.1949 25.0882 18.5092 25.0882C18.8235 25.0882 19.0806 25.3454 19.0806 25.6596C19.0806 26.1625 19.492 26.5739 20.0006 26.5739C20.5035 26.5739 20.9149 26.1625 20.9149 25.6596C20.9149 25.1511 20.5035 24.7396 20.0006 24.7396C18.8635 24.7396 17.9377 23.8196 17.9377 22.6825C17.9377 21.7454 18.572 20.9625 19.4292 20.7111V20.3739C19.4292 20.0596 19.6806 19.8025 20.0006 19.8025C20.3149 19.8025 20.572 20.0596 20.572 20.3739V20.7111C21.4234 20.9625 22.0578 21.7454 22.0578 22.6825C22.0578 22.9968 21.8006 23.2539 21.4863 23.2539C21.172 23.2539 20.9149 22.9968 20.9149 22.6825C20.9149 22.1739 20.5035 21.7625 20.0006 21.7625C19.492 21.7625 19.0806 22.1739 19.0806 22.6825C19.0806 23.1853 19.492 23.5968 20.0006 23.5968C21.132 23.5968 22.0578 24.5225 22.0578 25.6596Z" fill="white"/>
</svg>
