<svg width="40" height="40" viewBox="0 0 40 40" fill="none" xmlns="http://www.w3.org/2000/svg">
<path d="M37.1623 17.3779L34.3771 16.615C34.0141 15.0594 33.3993 13.5853 32.5475 12.2224L33.9993 9.70384C34.2882 9.17792 34.1993 8.54088 33.7845 8.12606L31.866 6.20754C31.4512 5.79273 30.8141 5.70384 30.2808 6.00014L27.7697 7.44458C26.4141 6.59273 24.94 5.98532 23.3771 5.61495L22.6141 2.82977C22.4586 2.25199 21.9326 1.85199 21.34 1.85199H18.6437C18.0512 1.85199 17.5252 2.25199 17.3697 2.82977L16.6141 5.61495C15.0437 5.98532 13.5697 6.59273 12.2141 7.44458L9.6956 6.00014C9.16968 5.70384 8.53264 5.79273 8.11782 6.20754L6.19931 8.12606C5.78449 8.54088 5.6956 9.17791 5.9919 9.71125L7.43634 12.2298C6.58449 13.5927 5.96968 15.0668 5.60671 16.615L2.82153 17.3779C2.24375 17.5335 1.84375 18.0594 1.84375 18.652V21.3483C1.84375 21.9409 2.24375 22.4668 2.82153 22.6224L5.60671 23.3779C5.97708 24.9483 6.58449 26.4298 7.43634 27.7779L5.98449 30.2964C5.6956 30.8224 5.78449 31.4594 6.19931 31.8816L8.11782 33.7927C8.53264 34.2075 9.16967 34.2964 9.70301 34.0001L12.2067 32.5557C13.5771 33.4075 15.0512 34.0224 16.6141 34.3853L17.3697 37.1705C17.5252 37.7483 18.0512 38.1483 18.6437 38.1483H21.34C21.9326 38.1483 22.4586 37.7483 22.6141 37.1779L23.3771 34.3853C24.94 34.0224 26.4215 33.4075 27.7771 32.5705L30.2808 34.0001C30.7993 34.2964 31.4512 34.2075 31.866 33.7927L33.7845 31.8816C34.1993 31.4594 34.2882 30.8075 33.9919 30.289L32.5549 27.7853C33.3993 26.4298 34.0141 24.9483 34.3771 23.3779L37.1623 22.6224C37.74 22.4668 38.14 21.9409 38.14 21.3483V18.652C38.14 18.0594 37.74 17.5335 37.1623 17.3779ZM37.3993 21.3483C37.3993 21.6075 37.2215 21.8372 36.9697 21.9112L33.9697 22.7187C33.8289 22.7557 33.7326 22.8668 33.703 23.0001C33.3474 24.6446 32.7104 26.1779 31.8141 27.5705C31.74 27.689 31.7326 27.8372 31.8067 27.9557L33.3549 30.6594C33.4808 30.889 33.4437 31.1705 33.2586 31.3557L31.3475 33.2668C31.1549 33.452 30.8808 33.489 30.6512 33.3631L27.9475 31.8149C27.8289 31.7483 27.6808 31.7483 27.5623 31.8224C26.1697 32.7261 24.6289 33.3557 22.9993 33.7112C22.866 33.7409 22.7549 33.8446 22.7178 33.9779L21.8956 36.9779C21.8289 37.2298 21.5993 37.4075 21.34 37.4075H18.6437C18.3845 37.4075 18.1549 37.2298 18.0882 36.9779L17.2734 33.9779C17.2363 33.8446 17.1252 33.7409 16.9919 33.7112C15.3623 33.3557 13.8215 32.7187 12.4215 31.8149C12.3623 31.7779 12.2882 31.7557 12.2215 31.7557C12.1549 31.7557 12.0882 31.7705 12.0363 31.8075L9.34005 33.3557C9.10301 33.489 8.82153 33.452 8.63634 33.2668L6.72523 31.3557C6.54005 31.1705 6.50301 30.889 6.63634 30.6594L8.18449 27.9483C8.25856 27.8298 8.25116 27.6816 8.17708 27.5631C7.27338 26.1779 6.63634 24.6372 6.28079 23.0001C6.25116 22.8668 6.15486 22.7557 6.02153 22.7187L3.01412 21.9112C2.76227 21.8372 2.58449 21.6075 2.58449 21.3483V18.652C2.58449 18.3927 2.76227 18.1631 3.01412 18.0964L6.02153 17.2742C6.15486 17.2372 6.25116 17.1261 6.28079 16.9927C6.63634 15.3779 7.27338 13.8446 8.17708 12.4372C8.25116 12.3187 8.25856 12.1705 8.18449 12.052L6.63634 9.34829C6.50301 9.11125 6.54005 8.82977 6.72523 8.64458L8.63634 6.73347C8.82153 6.54829 9.10301 6.51866 9.33264 6.64458L12.0437 8.20014C12.1623 8.2668 12.3104 8.2594 12.4289 8.18532C13.8215 7.28162 15.3549 6.64458 16.9919 6.28903C17.1252 6.2594 17.2363 6.1631 17.2734 6.02977L18.0882 3.02236C18.1549 2.77051 18.3845 2.59273 18.6437 2.59273H21.34C21.5993 2.59273 21.8289 2.77051 21.8956 3.02236L22.7178 6.02977C22.7549 6.1631 22.866 6.2594 22.9993 6.28903C24.6363 6.64458 26.1697 7.28162 27.5549 8.18532C27.6734 8.2594 27.8215 8.2668 27.94 8.20014L30.6437 6.64458C30.8808 6.51125 31.1623 6.55569 31.3475 6.73347L33.2586 8.64458C33.4437 8.82977 33.4808 9.11125 33.3549 9.34088L31.7993 12.0446C31.7252 12.1631 31.7326 12.3112 31.8067 12.4298C32.7104 13.8372 33.3549 15.3705 33.703 16.9927C33.7326 17.1261 33.8289 17.2372 33.9623 17.2742L36.9697 18.0964C37.2215 18.1631 37.3993 18.3927 37.3993 18.652V21.3483Z" fill="#8753D4"/>
<path d="M36.975 18.0964L33.9676 17.2742C33.8343 17.2372 33.738 17.126 33.7084 16.9927C33.3602 15.3705 32.7158 13.8372 31.8121 12.4298C31.738 12.3112 31.7306 12.1631 31.8047 12.0446L33.3602 9.34086C33.4861 9.11123 33.4491 8.82975 33.2639 8.64456L31.3528 6.73345C31.1676 6.55568 30.8861 6.51123 30.6491 6.64456L27.9454 8.20012C27.8269 8.26679 27.6787 8.25938 27.5602 8.18531C26.175 7.2816 24.6417 6.64456 23.0047 6.28901C22.8713 6.25938 22.7602 6.16308 22.7232 6.02975L21.901 3.02234C21.8343 2.77049 21.6047 2.59271 21.3454 2.59271H18.6491C18.3898 2.59271 18.1602 2.77049 18.0935 3.02234L17.2787 6.02975C17.2417 6.16308 17.1306 6.25938 16.9973 6.28901C15.3602 6.64456 13.8269 7.2816 12.4343 8.18531C12.3158 8.25938 12.1676 8.26679 12.0491 8.20012L9.33799 6.64456C9.10836 6.51864 8.82688 6.54827 8.6417 6.73345L6.73058 8.64456C6.5454 8.82975 6.50836 9.11123 6.6417 9.34827L8.18984 12.052C8.26392 12.1705 8.25651 12.3186 8.18244 12.4372C7.27873 13.8446 6.6417 15.3779 6.28614 16.9927C6.25651 17.126 6.16021 17.2372 6.02688 17.2742L3.01947 18.0964C2.76762 18.1631 2.58984 18.3927 2.58984 18.652V21.3483C2.58984 21.6075 2.76762 21.8372 3.01947 21.9112L6.02688 22.7186C6.16021 22.7557 6.25651 22.8668 6.28614 23.0001C6.6417 24.6372 7.27873 26.1779 8.18244 27.5631C8.25651 27.6816 8.26392 27.8298 8.18984 27.9483L6.6417 30.6594C6.50836 30.889 6.5454 31.1705 6.73058 31.3557L8.6417 33.2668C8.82688 33.452 9.10836 33.489 9.3454 33.3557L12.0417 31.8075C12.0935 31.7705 12.1602 31.7557 12.2269 31.7557C12.2935 31.7557 12.3676 31.7779 12.4269 31.8149C13.8269 32.7186 15.3676 33.3557 16.9973 33.7112C17.1306 33.7409 17.2417 33.8446 17.2787 33.9779L18.0935 36.9779C18.1602 37.2298 18.3898 37.4075 18.6491 37.4075H21.3454C21.6047 37.4075 21.8343 37.2298 21.901 36.9779L22.7232 33.9779C22.7602 33.8446 22.8713 33.7409 23.0047 33.7112C24.6343 33.3557 26.175 32.726 27.5676 31.8223C27.6861 31.7483 27.8343 31.7483 27.9528 31.8149L30.6565 33.3631C30.8861 33.489 31.1602 33.452 31.3528 33.2668L33.2639 31.3557C33.4491 31.1705 33.4861 30.889 33.3602 30.6594L31.8121 27.9557C31.738 27.8372 31.7454 27.689 31.8195 27.5705C32.7158 26.1779 33.3528 24.6446 33.7084 23.0001C33.738 22.8668 33.8343 22.7557 33.975 22.7186L36.975 21.9112C37.2269 21.8372 37.4047 21.6075 37.4047 21.3483V18.652C37.4047 18.3927 37.2269 18.1631 36.975 18.0964ZM19.9973 29.9779C14.4935 29.9779 10.0195 25.5038 10.0195 20.0001C10.0195 14.4964 14.4935 10.0223 19.9973 10.0223C25.501 10.0223 29.975 14.4964 29.975 20.0001C29.975 25.5038 25.501 29.9779 19.9973 29.9779Z" fill="#8753D4" fill-opacity="0.6"/>
<path d="M19.9934 10.0225C14.4897 10.0225 10.0156 14.4965 10.0156 20.0002C10.0156 25.5039 14.4897 29.978 19.9934 29.978C25.4971 29.978 29.9712 25.5039 29.9712 20.0002C29.9712 14.4965 25.4971 10.0225 19.9934 10.0225ZM19.9934 29.2373C14.8971 29.2373 10.7564 25.0965 10.7564 20.0002C10.7564 14.9039 14.8971 10.7632 19.9934 10.7632C25.0897 10.7632 29.2304 14.9039 29.2304 20.0002C29.2304 25.0965 25.0897 29.2373 19.9934 29.2373Z" fill="#8753D4"/>
<path d="M19.9883 13.2149C16.2476 13.2149 13.2031 16.2593 13.2031 20.0001C13.2031 23.7408 16.2476 26.7853 19.9883 26.7853C23.7291 26.7853 26.7735 23.7408 26.7735 20.0001C26.7735 16.2593 23.7291 13.2149 19.9883 13.2149ZM19.9883 26.0445C16.655 26.0445 13.9439 23.3334 13.9439 20.0001C13.9439 16.6668 16.655 13.9556 19.9883 13.9556C23.3216 13.9556 26.0328 16.6668 26.0328 20.0001C26.0328 23.3334 23.3216 26.0445 19.9883 26.0445Z" fill="#8753D4"/>
<path d="M19.9937 13.956C16.6603 13.956 13.9492 16.6671 13.9492 20.0004C13.9492 23.3338 16.6603 26.0449 19.9937 26.0449C23.327 26.0449 26.0381 23.3338 26.0381 20.0004C26.0381 16.6671 23.327 13.956 19.9937 13.956ZM19.9937 19.6301C21.0159 19.6301 21.8455 20.4597 21.8455 21.4819C21.8455 22.3782 21.2085 23.119 20.364 23.2967V23.756C20.364 23.956 20.2011 24.1264 19.9937 24.1264C19.7863 24.1264 19.6233 23.956 19.6233 23.756V23.2967C18.7788 23.119 18.1418 22.3782 18.1418 21.4819C18.1418 21.2745 18.3122 21.1115 18.5122 21.1115C18.7196 21.1115 18.8826 21.2745 18.8826 21.4819C18.8826 22.0967 19.3788 22.593 19.9937 22.593C20.6085 22.593 21.1048 22.0967 21.1048 21.4819C21.1048 20.8671 20.6085 20.3708 19.9937 20.3708C18.9714 20.3708 18.1418 19.5412 18.1418 18.519C18.1418 17.6301 18.7788 16.8819 19.6233 16.7115V16.2523C19.6233 16.0449 19.7863 15.8819 19.9937 15.8819C20.2011 15.8819 20.364 16.0449 20.364 16.2523V16.7115C21.2085 16.8819 21.8455 17.6301 21.8455 18.519C21.8455 18.7264 21.6751 18.8893 21.4751 18.8893C21.2677 18.8893 21.1048 18.7264 21.1048 18.519C21.1048 17.9115 20.6085 17.4153 19.9937 17.4153C19.3788 17.4153 18.8826 17.9115 18.8826 18.519C18.8826 19.1338 19.3788 19.6301 19.9937 19.6301Z" fill="#8753D4" fill-opacity="0.6"/>
<path d="M21.8443 21.4817C21.8443 22.3779 21.2073 23.1187 20.3628 23.2965V23.7557C20.3628 23.9557 20.1999 24.1261 19.9925 24.1261C19.7851 24.1261 19.6221 23.9557 19.6221 23.7557V23.2965C18.7777 23.1187 18.1406 22.3779 18.1406 21.4817C18.1406 21.2742 18.311 21.1113 18.511 21.1113C18.7184 21.1113 18.8814 21.2742 18.8814 21.4817C18.8814 22.0965 19.3777 22.5928 19.9925 22.5928C20.6073 22.5928 21.1036 22.0965 21.1036 21.4817C21.1036 20.8668 20.6073 20.3705 19.9925 20.3705C18.9703 20.3705 18.1406 19.5409 18.1406 18.5187C18.1406 17.6298 18.7777 16.8817 19.6221 16.7113V16.252C19.6221 16.0446 19.7851 15.8817 19.9925 15.8817C20.1999 15.8817 20.3628 16.0446 20.3628 16.252V16.7113C21.2073 16.8817 21.8443 17.6298 21.8443 18.5187C21.8443 18.7261 21.674 18.8891 21.474 18.8891C21.2666 18.8891 21.1036 18.7261 21.1036 18.5187C21.1036 17.9113 20.6073 17.415 19.9925 17.415C19.3777 17.415 18.8814 17.9113 18.8814 18.5187C18.8814 19.1335 19.3777 19.6298 19.9925 19.6298C21.0147 19.6298 21.8443 20.4594 21.8443 21.4817Z" fill="white"/>
</svg>
