<svg width="40" height="40" viewBox="0 0 40 40" fill="none" xmlns="http://www.w3.org/2000/svg">
<path d="M33.75 0H6.25C2.79822 0 0 2.79822 0 6.25V33.75C0 37.2018 2.79822 40 6.25 40H33.75C37.2018 40 40 37.2018 40 33.75V6.25C40 2.79822 37.2018 0 33.75 0Z" fill="white"/>
<g clip-path="url(#clip0_5_13500)">
<path d="M26.335 26.339H23.67V22.162C23.67 21.166 23.65 19.884 22.28 19.884C20.891 19.884 20.679 20.968 20.679 22.089V26.339H18.013V17.75H20.573V18.92H20.608C20.966 18.246 21.836 17.533 23.136 17.533C25.836 17.533 26.336 19.311 26.336 21.624V26.339H26.335ZM15.003 16.575C14.7996 16.5753 14.5981 16.5354 14.4101 16.4576C14.2221 16.3798 14.0513 16.2657 13.9075 16.1218C13.7636 15.9779 13.6497 15.8071 13.572 15.619C13.4944 15.431 13.4546 15.2294 13.455 15.026C13.4552 14.7198 13.5462 14.4206 13.7164 14.1661C13.8867 13.9117 14.1286 13.7134 14.4115 13.5965C14.6945 13.4795 15.0057 13.449 15.306 13.5089C15.6062 13.5689 15.882 13.7165 16.0983 13.9331C16.3147 14.1497 16.4619 14.4257 16.5215 14.726C16.581 15.0263 16.5501 15.3375 16.4328 15.6203C16.3154 15.9031 16.1169 16.1447 15.8622 16.3147C15.6075 16.4846 15.3082 16.5752 15.002 16.575H15.003ZM16.339 26.339H13.666V17.75H16.34V26.339H16.339ZM27.67 11H12.329C11.593 11 11 11.58 11 12.297V27.703C11 28.42 11.594 29 12.328 29H27.666C28.4 29 29 28.42 29 27.703V12.297C29 11.58 28.4 11 27.666 11H27.669H27.67Z" fill="#120920"/>
</g>
<defs>
<clipPath id="clip0_5_13500">
<rect width="24" height="24" fill="white" transform="translate(8 8)"/>
</clipPath>
</defs>
</svg>
