<svg width="42" height="48" viewBox="0 0 42 48" fill="none" xmlns="http://www.w3.org/2000/svg">
<path d="M30.075 3.46547C29.8614 3.66975 29.8543 4.00904 30.06 4.22333C32.4643 6.72975 33.9464 9.85047 34.4721 12.8405C34.5229 13.1312 34.8 13.3269 35.0921 13.2748C35.3829 13.224 35.5786 12.9462 35.5264 12.6548C34.975 9.50761 33.4236 6.18261 30.8329 3.48047C30.6279 3.26761 30.2886 3.26047 30.075 3.46547Z" fill="#8753D4"/>
<path d="M28.2869 1.93836C28.1033 2.1705 28.1441 2.50764 28.3762 2.6905C28.4969 2.7855 28.6148 2.88264 28.7319 2.9805C28.9562 3.16907 29.2948 3.14336 29.4869 2.91478C29.6776 2.68836 29.6484 2.34978 29.4212 2.15978C29.2955 2.05478 29.1684 1.9505 29.0391 1.84836C28.8062 1.6655 28.4691 1.70621 28.2869 1.93836Z" fill="#8753D4"/>
<path d="M1.66199 15.6592C1.66199 14.4763 1.78842 13.2934 2.03699 12.1463C2.10056 11.8577 1.91627 11.572 1.6277 11.5084C1.33913 11.452 1.05342 11.6292 0.989844 11.9184C0.724844 13.1406 0.589844 14.3992 0.589844 15.6584C0.589844 19.1399 1.85842 22.7099 4.16342 25.7113C4.34127 25.9434 4.67627 25.9913 4.91484 25.8099C5.14913 25.6299 5.19341 25.2934 5.01341 25.0584C2.8527 22.2441 1.66199 18.9056 1.66199 15.6592Z" fill="#8753D4"/>
<path d="M6.53663 26.8013C6.32806 26.5913 5.98877 26.5899 5.77877 26.7999C5.56949 27.0084 5.56806 27.3477 5.77735 27.5577C6.06235 27.8441 6.35806 28.1249 6.66449 28.3977C6.88235 28.5927 7.22092 28.5777 7.42092 28.3541C7.61735 28.1334 7.59877 27.7949 7.37735 27.5977C7.08877 27.3391 6.80806 27.0741 6.53663 26.8013Z" fill="#8753D4"/>
<path d="M33.1506 31.8177C32.8956 31.842 32.637 31.8549 32.3756 31.8549C32.0798 31.8549 31.8398 32.0949 31.8398 32.3906C31.8398 32.6863 32.0798 32.9263 32.3756 32.9263C32.672 32.9263 32.9648 32.912 33.2534 32.8834C33.5484 32.8549 33.7641 32.5934 33.7348 32.2992C33.707 32.0049 33.4448 31.782 33.1506 31.8177Z" fill="#8753D4"/>
<path d="M40.9636 24.437C40.6715 24.3942 40.4008 24.6013 40.36 24.8956C39.995 27.5613 38.3258 29.8606 35.895 31.0456C35.6286 31.1749 35.5186 31.4956 35.6479 31.7613C35.7779 32.0284 36.1 32.1377 36.3636 32.0084C39.1172 30.667 41.0079 28.0627 41.4215 25.0406C41.4615 24.7477 41.2565 24.4777 40.9636 24.437Z" fill="#8753D4"/>
<path d="M32.7241 17.5463C34.0813 9.43201 27.4098 0.924867 18.2027 0.917725C18.2027 0.917725 18.1956 0.917725 18.1884 0.917725C10.0456 0.917725 3.44556 7.4963 3.44556 15.6606C3.44556 19.5034 5.31699 23.3749 8.56699 26.2677C10.8313 28.2892 12.2884 31.032 12.4456 34.1606H11.2098C10.2027 34.1606 9.38841 34.9749 9.38841 35.982V37.8249C9.38841 38.332 9.58841 38.782 9.91699 39.1106C9.58841 39.4391 9.38841 39.8963 9.38841 40.3963V42.2463C9.38841 43.2463 10.2027 44.0677 11.2098 44.0677H13.5956C14.3884 45.882 16.1813 47.082 18.1813 47.082C20.1884 47.082 21.9813 45.882 22.7813 44.0677H25.167C26.167 44.0677 26.9884 43.2463 26.9884 42.2463V40.3963C26.9884 39.8963 26.7813 39.4391 26.4527 39.1106C26.7813 38.782 26.9884 38.332 26.9884 37.8249V35.982C26.9884 34.9749 26.167 34.1606 25.167 34.1606H23.9241C24.0527 31.5106 25.1527 28.9749 27.0098 27.032C28.1098 28.8463 30.1027 30.0677 32.3741 30.0677C35.8313 30.0677 38.6456 27.2534 38.6456 23.7963C38.6456 20.4534 36.017 17.7249 32.7241 17.5463ZM18.1813 46.0106C16.767 46.0106 15.4813 45.2534 14.7741 44.0677H21.5956C20.8956 45.2534 19.6027 46.0106 18.1813 46.0106ZM25.917 42.2463C25.917 42.6606 25.5741 42.9963 25.167 42.9963H11.2098C10.7956 42.9963 10.4598 42.6606 10.4598 42.2463V40.3963C10.4598 39.982 10.7956 39.6463 11.2098 39.6463H25.167C25.5741 39.6463 25.917 39.982 25.917 40.3963V42.2463ZM25.167 35.232C25.5741 35.232 25.917 35.5677 25.917 35.982V37.8249C25.917 38.2392 25.5741 38.5749 25.167 38.5749H11.2098C10.7956 38.5749 10.4598 38.2392 10.4598 37.8249V35.982C10.4598 35.5677 10.7956 35.232 11.2098 35.232H25.167ZM17.6527 14.682C16.8098 14.9177 16.1813 15.682 16.1813 16.5963C16.1813 17.7034 17.0813 18.5963 18.1884 18.5963C19.2884 18.5963 20.1884 17.7034 20.1884 16.5963C20.1884 15.682 19.567 14.9177 18.7241 14.682V11.632L22.7098 17.932C22.7313 17.9534 22.7384 17.982 22.7384 18.0177V19.3249C22.7384 19.3963 22.6884 19.4534 22.6241 19.4677C21.3313 19.6892 20.2456 20.5534 19.717 21.7606H16.6527C16.1241 20.5534 15.0456 19.6892 13.7527 19.4677C13.6813 19.4534 13.6384 19.3963 13.6384 19.3249V18.0177C13.6384 17.982 13.6456 17.9534 13.6598 17.932L17.6527 11.632V14.682ZM18.1884 15.6677C18.7027 15.6677 19.117 16.082 19.117 16.5963C19.117 17.1106 18.7027 17.5249 18.1884 17.5249C17.6741 17.5249 17.2527 17.1106 17.2527 16.5963C17.2527 16.082 17.6741 15.6677 18.1884 15.6677ZM20.367 22.9034V24.8463H16.0027V22.9034C16.0027 22.8606 16.0384 22.832 16.0813 22.832H20.2956C20.3313 22.832 20.367 22.8606 20.367 22.9034ZM21.0527 25.9177V34.1606H15.317V25.9177H21.0527ZM26.5027 25.9963C24.2884 28.1677 22.9741 31.0891 22.8384 34.1606H22.1241V25.9177H22.7741C23.067 25.9177 23.3098 25.682 23.3098 25.382C23.3098 25.0892 23.067 24.8463 22.7741 24.8463H21.4384V22.9034C21.4384 22.4749 21.1956 22.1034 20.8456 21.9106C21.267 21.182 21.9741 20.6677 22.8027 20.5249C23.3884 20.4249 23.8098 19.9177 23.8098 19.3249V18.0177C23.8098 17.782 23.7456 17.5534 23.617 17.3606C23.617 17.3606 23.617 17.3606 23.617 17.3534L19.2027 10.3892C18.9813 10.0392 18.6027 9.82487 18.1884 9.82487C17.7741 9.82487 17.3884 10.0392 17.167 10.3892L12.7527 17.3534C12.6313 17.5534 12.567 17.782 12.567 18.0177V19.3249C12.567 19.9177 12.9884 20.4249 13.567 20.5249C14.4027 20.6677 15.1098 21.182 15.5241 21.9106C15.1741 22.1034 14.9313 22.4749 14.9313 22.9034V24.8463H13.6027C13.3098 24.8463 13.067 25.0892 13.067 25.382C13.067 25.682 13.3098 25.9177 13.6027 25.9177H14.2456V34.1606H13.5384C13.3884 30.8249 11.8098 27.7249 9.28127 25.4677C6.2527 22.7749 4.51699 19.2034 4.51699 15.6606C4.51699 8.10344 10.6241 1.98915 18.1884 1.98915H18.2027C26.8313 1.9963 33.0241 10.0606 31.6384 17.5677C28.4741 17.9392 26.1027 20.6606 26.1027 23.7963C26.1027 24.4392 26.2384 25.282 26.5027 25.9963ZM32.3741 28.9963C29.4813 28.9963 27.1741 26.632 27.1741 23.7963C27.1741 20.9463 29.5027 18.5963 32.3741 18.5963C35.2456 18.5963 37.5741 20.932 37.5741 23.7963C37.5741 26.6677 35.2456 28.9963 32.3741 28.9963Z" fill="#8753D4"/>
<path d="M32.3719 18.5962C29.5004 18.5962 27.1719 20.9462 27.1719 23.7962C27.1719 26.6319 29.479 28.9962 32.3719 28.9962C35.2433 28.9962 37.5719 26.6676 37.5719 23.7962C37.5719 20.9319 35.2433 18.5962 32.3719 18.5962ZM35.1076 24.0676L32.6004 26.0462C31.8933 26.6105 30.8719 26.4676 30.329 25.7676L29.3647 24.5176C28.8219 23.8176 28.9576 22.8033 29.6576 22.2605C30.3433 21.7319 31.3362 21.8462 31.8862 22.5176L33.1147 21.5462C33.8076 21.0033 34.8147 21.1105 35.3719 21.8105C35.9147 22.5033 35.8076 23.5176 35.1076 24.0676Z" fill="#8753D4" fill-opacity="0.6"/>
<path d="M22.7367 18.0178V19.3249C22.7367 19.3964 22.6867 19.4535 22.6224 19.4678C21.3296 19.6892 20.2439 20.5535 19.7153 21.7607H16.651C16.1224 20.5535 15.0439 19.6892 13.751 19.4678C13.6796 19.4535 13.6367 19.3964 13.6367 19.3249V18.0178C13.6367 17.9821 13.6439 17.9535 13.6581 17.9321L17.651 11.6321V14.6821C16.8081 14.9178 16.1796 15.6821 16.1796 16.5964C16.1796 17.7035 17.0796 18.5964 18.1867 18.5964C19.2867 18.5964 20.1867 17.7035 20.1867 16.5964C20.1867 15.6821 19.5653 14.9178 18.7224 14.6821V11.6321L22.7081 17.9321C22.7296 17.9535 22.7367 17.9821 22.7367 18.0178Z" fill="#8753D4" fill-opacity="0.6"/>
<path d="M20.3643 22.9035V24.8463H16V22.9035C16 22.8606 16.0357 22.832 16.0786 22.832H20.2929C20.3286 22.832 20.3643 22.8606 20.3643 22.9035Z" fill="#8753D4" fill-opacity="0.6"/>
<path d="M25.9142 35.9819V37.8248C25.9142 38.2391 25.5713 38.5748 25.1642 38.5748H11.207C10.7927 38.5748 10.457 38.2391 10.457 37.8248V35.9819C10.457 35.5677 10.7927 35.2319 11.207 35.2319H25.1642C25.5713 35.2319 25.9142 35.5677 25.9142 35.9819Z" fill="#8753D4" fill-opacity="0.6"/>
<path d="M25.9142 40.3962V42.2462C25.9142 42.6605 25.5713 42.9962 25.1642 42.9962H11.207C10.7927 42.9962 10.457 42.6605 10.457 42.2462V40.3962C10.457 39.982 10.7927 39.6462 11.207 39.6462H25.1642C25.5713 39.6462 25.9142 39.982 25.9142 40.3962Z" fill="#8753D4" fill-opacity="0.6"/>
<path d="M35.3718 21.8105C34.8147 21.1105 33.8075 21.0034 33.1147 21.5462L31.8861 22.5176C31.3361 21.8462 30.3432 21.7319 29.6575 22.2605C28.9575 22.8034 28.8218 23.8176 29.3647 24.5176L30.329 25.7676C30.8718 26.4676 31.8932 26.6105 32.6004 26.0462L35.1075 24.0676C35.8075 23.5176 35.9147 22.5034 35.3718 21.8105ZM34.4432 23.2248L31.9361 25.2105C31.7004 25.3962 31.3575 25.3462 31.179 25.1176L30.2147 23.8605C30.0361 23.6319 30.079 23.2891 30.3075 23.1105C30.5432 22.9319 30.879 22.9748 31.0647 23.2105L31.3647 23.6034C31.5361 23.8248 31.879 23.8891 32.1218 23.6962L33.779 22.3891C34.0218 22.1962 34.3575 22.2534 34.529 22.4748C34.7147 22.7105 34.6718 23.0462 34.4432 23.2248Z" fill="#8753D4"/>
</svg>
