<svg width="50" height="50" viewBox="0 0 50 50" fill="none" xmlns="http://www.w3.org/2000/svg">
<path d="M41.1055 11.6322C41.1055 11.9279 41.3455 12.1679 41.6412 12.1679C41.9369 12.1679 42.1769 11.9279 42.1769 11.6322V8.48078C42.1769 8.18507 41.9369 7.94507 41.6412 7.94507C41.3455 7.94507 41.1055 8.18507 41.1055 8.48078V11.6322Z" fill="#8753D4"/>
<path d="M41.6412 6.2443C41.9369 6.2443 42.1769 6.0043 42.1769 5.70859V5.10359C42.1769 4.80787 41.9369 4.56787 41.6412 4.56787C41.3455 4.56787 41.1055 4.80787 41.1055 5.10359V5.70859C41.1055 6.0043 41.3448 6.2443 41.6412 6.2443Z" fill="#8753D4"/>
<path d="M2.12946 19.7886C2.42518 19.7886 2.66518 19.5486 2.66518 19.2529V18.5471C2.66518 18.2514 2.42518 18.0114 2.12946 18.0114C1.83375 18.0114 1.59375 18.2514 1.59375 18.5471V19.2529C1.59375 19.5486 1.83375 19.7886 2.12946 19.7886Z" fill="#8753D4"/>
<path d="M2.12946 34.525C2.42518 34.525 2.66518 34.285 2.66518 33.9893V21.8829C2.66518 21.5871 2.42518 21.3471 2.12946 21.3471C1.83375 21.3471 1.59375 21.5871 1.59375 21.8829V33.9893C1.59375 34.285 1.83375 34.525 2.12946 34.525Z" fill="#8753D4"/>
<path d="M16.9089 11.0928H10.8089C10.0518 11.0928 9.4375 11.7071 9.4375 12.4642V18.5571C9.4375 19.3142 10.0518 19.9356 10.8089 19.9356H16.9089C17.6661 19.9356 18.2804 19.3142 18.2804 18.5571V12.4642C18.2804 11.7071 17.6661 11.0928 16.9089 11.0928ZM17.2089 18.5571C17.2089 18.7285 17.0732 18.8642 16.9089 18.8642H10.8089C10.6446 18.8642 10.5089 18.7285 10.5089 18.5571V12.4642C10.5089 12.2928 10.6446 12.1642 10.8089 12.1642H16.9089C17.0732 12.1642 17.2089 12.2928 17.2089 12.4642V18.5571Z" fill="#8753D4"/>
<path d="M16.9089 23.2715H10.8089C10.0518 23.2715 9.4375 23.8858 9.4375 24.6429V30.7429C9.4375 31.5001 10.0518 32.1143 10.8089 32.1143H16.9089C17.6661 32.1143 18.2804 31.5001 18.2804 30.7429V24.6429C18.2804 23.8858 17.6661 23.2715 16.9089 23.2715ZM17.2089 30.7429C17.2089 30.9072 17.0732 31.0429 16.9089 31.0429H10.8089C10.6446 31.0429 10.5089 30.9072 10.5089 30.7429V24.6429C10.5089 24.4786 10.6446 24.3429 10.8089 24.3429H16.9089C17.0732 24.3429 17.2089 24.4786 17.2089 24.6429V30.7429Z" fill="#8753D4"/>
<path d="M16.9089 35.457H10.8089C10.0518 35.457 9.4375 36.0713 9.4375 36.8285V42.9213C9.4375 43.6856 10.0518 44.2999 10.8089 44.2999H16.9089C17.6661 44.2999 18.2804 43.6856 18.2804 42.9213V36.8285C18.2804 36.0713 17.6661 35.457 16.9089 35.457ZM17.2089 42.9213C17.2089 43.0927 17.0732 43.2285 16.9089 43.2285H10.8089C10.6446 43.2285 10.5089 43.0927 10.5089 42.9213V36.8285C10.5089 36.6642 10.6446 36.5285 10.8089 36.5285H16.9089C17.0732 36.5285 17.2089 36.6642 17.2089 36.8285V42.9213Z" fill="#8753D4"/>
<path d="M24.4146 13.7834H21.7974C21.5017 13.7834 21.2617 14.0234 21.2617 14.3192C21.2617 14.6149 21.5017 14.8549 21.7974 14.8549H24.4146C24.7103 14.8549 24.9503 14.6149 24.9503 14.3192C24.9503 14.0234 24.7103 13.7834 24.4146 13.7834Z" fill="#8753D4"/>
<path d="M27.692 14.8549H31.4905C31.7863 14.8549 32.0263 14.6149 32.0263 14.3192C32.0263 14.0234 31.7863 13.7834 31.4905 13.7834H27.692C27.3962 13.7834 27.1562 14.0234 27.1562 14.3192C27.1562 14.6149 27.3962 14.8549 27.692 14.8549Z" fill="#8753D4"/>
<path d="M24.4146 16.168H21.7974C21.5017 16.168 21.2617 16.408 21.2617 16.7037C21.2617 16.9994 21.5017 17.2394 21.7974 17.2394H24.4146C24.7103 17.2394 24.9503 16.9994 24.9503 16.7037C24.9503 16.408 24.7103 16.168 24.4146 16.168Z" fill="#8753D4"/>
<path d="M31.4928 16.168H30.5513C30.2556 16.168 30.0156 16.408 30.0156 16.7037C30.0156 16.9994 30.2556 17.2394 30.5513 17.2394H31.4928C31.7885 17.2394 32.0285 16.9994 32.0285 16.7037C32.0285 16.408 31.7885 16.168 31.4928 16.168Z" fill="#8753D4"/>
<path d="M24.4146 25.9658H21.7974C21.5017 25.9658 21.2617 26.2058 21.2617 26.5015C21.2617 26.7972 21.5017 27.0372 21.7974 27.0372H24.4146C24.7103 27.0372 24.9503 26.7972 24.9503 26.5015C24.9503 26.2058 24.7103 25.9658 24.4146 25.9658Z" fill="#8753D4"/>
<path d="M27.692 27.0372H32.2048C32.5005 27.0372 32.7405 26.7972 32.7405 26.5015C32.7405 26.2058 32.5005 25.9658 32.2048 25.9658H27.692C27.3963 25.9658 27.1562 26.2058 27.1562 26.5015C27.1562 26.7972 27.3963 27.0372 27.692 27.0372Z" fill="#8753D4"/>
<path d="M21.7974 29.4215H23.7003C23.996 29.4215 24.236 29.1815 24.236 28.8858C24.236 28.5901 23.996 28.3501 23.7003 28.3501H21.7974C21.5017 28.3501 21.2617 28.5901 21.2617 28.8858C21.2617 29.1815 21.5017 29.4215 21.7974 29.4215Z" fill="#8753D4"/>
<path d="M27.692 29.4215H29.4591C29.7548 29.4215 29.9948 29.1815 29.9948 28.8858C29.9948 28.5901 29.7548 28.3501 29.4591 28.3501H27.692C27.3963 28.3501 27.1562 28.5901 27.1562 28.8858C27.1562 29.1815 27.3963 29.4215 27.692 29.4215Z" fill="#8753D4"/>
<path d="M24.4146 38.1492H21.7974C21.5017 38.1492 21.2617 38.3892 21.2617 38.6849C21.2617 38.9806 21.5017 39.2206 21.7974 39.2206H24.4146C24.7103 39.2206 24.9503 38.9806 24.9503 38.6849C24.9503 38.3892 24.7103 38.1492 24.4146 38.1492Z" fill="#8753D4"/>
<path d="M27.3657 38.1492H26.9771C26.6814 38.1492 26.4414 38.3892 26.4414 38.6849C26.4414 38.9806 26.6814 39.2206 26.9771 39.2206H27.3657C27.6614 39.2206 27.9014 38.9806 27.9014 38.6849C27.9014 38.3892 27.6614 38.1492 27.3657 38.1492Z" fill="#8753D4"/>
<path d="M23.7003 40.5334H21.7974C21.5017 40.5334 21.2617 40.7734 21.2617 41.0692C21.2617 41.3649 21.5017 41.6049 21.7974 41.6049H23.7003C23.996 41.6049 24.236 41.3649 24.236 41.0692C24.236 40.7734 23.996 40.5334 23.7003 40.5334Z" fill="#8753D4"/>
<path d="M26.9772 40.5334H26.7115C26.4158 40.5334 26.1758 40.7734 26.1758 41.0692C26.1758 41.3649 26.4158 41.6049 26.7115 41.6049H26.9772C27.2729 41.6049 27.5129 41.3649 27.5129 41.0692C27.5129 40.7734 27.2729 40.5334 26.9772 40.5334Z" fill="#8753D4"/>
<path d="M15.2149 15.3784L13.8221 16.4784C13.6007 16.657 13.2721 16.6284 13.0792 16.407L12.4292 15.6356C12.2364 15.4142 12.2649 15.0713 12.4864 14.8856C12.7149 14.6927 13.0507 14.7213 13.2435 14.9427L13.5649 15.3213L14.5507 14.5427C14.7792 14.357 15.1149 14.3999 15.3007 14.6284C15.4864 14.857 15.4435 15.1999 15.2149 15.3784Z" fill="#8753D4"/>
<path d="M15.2149 27.5642L13.8221 28.6642C13.6007 28.8427 13.2721 28.8142 13.0792 28.5927L12.4292 27.8213C12.2364 27.5927 12.2649 27.257 12.4864 27.0642C12.7149 26.8713 13.0507 26.8999 13.2435 27.1284L13.5649 27.4999L14.5507 26.7213C14.7792 26.5427 15.1149 26.5784 15.3007 26.8142C15.4864 27.0427 15.4435 27.3784 15.2149 27.5642Z" fill="#8753D4"/>
<path d="M42.2111 30.6594L41.8911 31.1679C41.7332 31.4186 41.8089 31.7486 42.0589 31.9065C42.3089 32.0644 42.6403 31.9886 42.7975 31.7386L43.1175 31.2301C43.2753 30.9794 43.1996 30.6494 42.9496 30.4915C42.6996 30.3344 42.3689 30.4086 42.2111 30.6594Z" fill="#8753D4"/>
<path d="M45.5652 25.3257L43.3559 28.8392C43.198 29.0899 43.2738 29.4199 43.5238 29.5778C43.7723 29.7342 44.1038 29.6614 44.2623 29.4099L46.4716 25.8964C46.6295 25.6457 46.5538 25.3157 46.3038 25.1578C46.0523 24.9985 45.7216 25.0757 45.5652 25.3257Z" fill="#8753D4"/>
<path d="M47.6603 15.6857L44.7388 13.85C44.0031 13.3857 43.0317 13.6071 42.5674 14.3429C42.4246 14.5643 39.0674 19.9071 38.8531 20.2429V3.94285C38.8531 2.74999 37.8746 1.77856 36.6746 1.77856H6.61741C5.42455 1.77856 4.45312 2.74999 4.45312 3.94285V46.05C4.45312 47.25 5.42455 48.2214 6.61741 48.2214H36.6746C37.8746 48.2214 38.8531 47.25 38.8531 46.05V32.65C40.746 29.6286 36.7603 35.9786 48.1531 17.8571C48.6174 17.1214 48.396 16.1428 47.6603 15.6857ZM14.9674 2.84999H28.346V6.49285C28.346 6.75714 28.1246 6.97142 27.8603 6.97142H15.446C15.1817 6.97142 14.9674 6.75714 14.9674 6.49285V2.84999ZM37.7817 46.05C37.7817 46.6571 37.2817 47.15 36.6746 47.15H6.61741C6.01027 47.15 5.52455 46.6571 5.52455 46.05V3.94285C5.52455 3.34999 6.02455 2.84999 6.61741 2.84999H13.896V6.49285C13.896 7.34999 14.5888 8.04285 15.446 8.04285H27.8603C28.7174 8.04285 29.4174 7.34999 29.4174 6.49285V2.84999H36.6746C37.2817 2.84999 37.7817 3.34285 37.7817 3.94285V21.9571C37.7317 22.0286 30.096 34.1571 29.9674 34.4214C29.8603 34.6214 29.7888 34.8357 29.7603 35.0643L29.4388 37.9214L29.1246 40.6286C29.096 40.9214 29.2246 41.2 29.4746 41.3571C29.7246 41.5143 30.0317 41.5214 30.296 41.3643C32.1317 40.2 34.7317 38.5714 35.0674 38.3428C35.3031 38.1928 35.5031 37.9786 35.6246 37.7857L37.7817 34.35V46.05ZM30.8103 35.3214L34.346 37.5429C34.2746 37.5857 30.2746 40.1071 30.2674 40.1071L30.5031 38.0286L30.8103 35.3214ZM45.0317 20.8071C45.0031 20.85 44.9817 20.8786 44.9674 20.9071C44.9674 20.9143 44.9603 20.9214 44.9531 20.9286C44.946 20.9429 44.9388 20.95 44.9246 20.9714V20.9786C44.9103 21 44.896 21.0286 44.8674 21.0571C44.3317 21.9143 42.2103 25.2928 35.0317 36.7071L31.2603 34.3357C32.9817 31.6071 37.0817 25.0786 41.2603 18.4286L42.696 19.3357L38.3531 26.2357C38.196 26.4857 38.2746 26.8143 38.5246 26.9714C38.7746 27.1286 39.1031 27.0571 39.2603 26.8L43.6031 19.9L45.0317 20.8V20.8071ZM47.246 17.2857L45.6031 19.8929L41.8317 17.5214L43.4746 14.9143C43.6174 14.6786 43.9531 14.6214 44.1674 14.7571L47.0888 16.5929C47.3246 16.7357 47.396 17.05 47.246 17.2857Z" fill="#8753D4"/>
<path d="M47.2463 17.2856L45.6035 19.8928L41.832 17.5214L43.4749 14.9142C43.6177 14.6785 43.9535 14.6214 44.1677 14.7571L47.0892 16.5928C47.3249 16.7356 47.3963 17.0499 47.2463 17.2856Z" fill="#8753D4" fill-opacity="0.6"/>
<path d="M45.0329 20.8V20.8071C45.0043 20.85 44.9829 20.8786 44.9686 20.9071C44.9686 20.9143 44.9615 20.9214 44.9543 20.9286C44.9472 20.9428 44.94 20.95 44.9258 20.9714V20.9786C44.9115 21 44.8972 21.0286 44.8686 21.0571C44.3329 21.9143 42.2115 25.2928 35.0329 36.7071L31.2615 34.3357C32.9829 31.6071 37.0829 25.0786 41.2615 18.4286L42.6972 19.3357L38.3543 26.2357C38.1972 26.4857 38.2758 26.8143 38.5258 26.9714C38.7758 27.1286 39.1043 27.0571 39.2615 26.8L43.6043 19.9L45.0329 20.8Z" fill="#8753D4" fill-opacity="0.6"/>
<path d="M34.3481 37.543C34.2767 37.5858 30.2767 40.1072 30.2695 40.1072L30.5052 38.0287L30.8124 35.3215L34.3481 37.543Z" fill="#8753D4" fill-opacity="0.6"/>
<path d="M17.212 36.8286V42.9214C17.212 43.0929 17.0762 43.2286 16.912 43.2286H10.812C10.6477 43.2286 10.512 43.0929 10.512 42.9214V36.8286C10.512 36.6643 10.6477 36.5286 10.812 36.5286H16.912C17.0762 36.5286 17.212 36.6643 17.212 36.8286Z" fill="#8753D4" fill-opacity="0.6"/>
<path d="M16.912 24.3428H10.812C10.6477 24.3428 10.512 24.4786 10.512 24.6428V30.7428C10.512 30.9071 10.6477 31.0428 10.812 31.0428H16.912C17.0762 31.0428 17.212 30.9071 17.212 30.7428V24.6428C17.212 24.4786 17.0762 24.3428 16.912 24.3428ZM15.2191 27.5643L13.8262 28.6643C13.6048 28.8428 13.2762 28.8143 13.0834 28.5928L12.4334 27.8214C12.2405 27.5928 12.2691 27.2571 12.4905 27.0643C12.7191 26.8714 13.0548 26.9 13.2477 27.1286L13.5691 27.5L14.5548 26.7214C14.7834 26.5428 15.1191 26.5786 15.3048 26.8143C15.4905 27.0428 15.4477 27.3786 15.2191 27.5643Z" fill="#8753D4" fill-opacity="0.6"/>
<path d="M16.912 12.1643H10.812C10.6477 12.1643 10.512 12.2928 10.512 12.4643V18.5571C10.512 18.7286 10.6477 18.8643 10.812 18.8643H16.912C17.0762 18.8643 17.212 18.7286 17.212 18.5571V12.4643C17.212 12.2928 17.0762 12.1643 16.912 12.1643ZM15.2191 15.3786L13.8262 16.4786C13.6048 16.6571 13.2762 16.6286 13.0834 16.4071L12.4334 15.6357C12.2405 15.4143 12.2691 15.0714 12.4905 14.8857C12.7191 14.6928 13.0548 14.7214 13.2477 14.9428L13.5691 15.3214L14.5548 14.5428C14.7834 14.3571 15.1191 14.4 15.3048 14.6286C15.4905 14.8571 15.4477 15.2 15.2191 15.3786Z" fill="#8753D4" fill-opacity="0.6"/>
<path d="M28.3473 2.8501V6.49296C28.3473 6.75724 28.1259 6.97153 27.8616 6.97153H15.4473C15.183 6.97153 14.9688 6.75724 14.9688 6.49296V2.8501H28.3473Z" fill="#8753D4" fill-opacity="0.6"/>
</svg>
